<svg width="1073" height="257" viewBox="0 0 1073 257" fill="none" xmlns="http://www.w3.org/2000/svg">
<rect x="419.854" y="84.464" width="102.084" height="68.084" rx="7.63358" fill="#D5D46E"/>
<path d="M436.636 132.006L434.636 112.006H436.556L438.196 129.446L448.036 112.006H450.036L452.316 129.526L461.836 112.006H463.996L452.876 132.006H450.876L448.516 114.686L438.676 132.006H436.636ZM470.684 108.126C470.23 108.126 469.857 107.993 469.564 107.726C469.297 107.433 469.164 107.073 469.164 106.646C469.164 106.059 469.337 105.606 469.684 105.286C470.03 104.939 470.444 104.766 470.924 104.766C471.377 104.766 471.737 104.913 472.004 105.206C472.297 105.473 472.444 105.819 472.444 106.246C472.444 106.806 472.27 107.259 471.924 107.606C471.604 107.953 471.19 108.126 470.684 108.126ZM470.524 112.006L465.884 132.006H463.884L468.524 112.006H470.524ZM480.15 132.366C478.897 132.366 477.87 132.126 477.07 131.646C476.27 131.139 475.723 130.433 475.43 129.526C475.137 128.593 475.123 127.473 475.39 126.166L479.75 107.246L481.91 106.606L477.35 126.286C477.03 127.726 477.15 128.806 477.71 129.526C478.297 130.246 479.203 130.606 480.43 130.606C481.097 130.606 481.697 130.513 482.23 130.326C482.763 130.139 483.257 129.886 483.71 129.566L484.15 131.206C483.563 131.606 482.937 131.899 482.27 132.086C481.603 132.273 480.897 132.366 480.15 132.366ZM474.15 113.726L474.59 112.006H487.11L486.67 113.726H474.15ZM487.556 132.006L494.316 102.806H496.316L493.076 116.766L492.676 116.886C493.076 115.819 493.663 114.899 494.436 114.126C495.21 113.326 496.143 112.713 497.236 112.286C498.33 111.833 499.53 111.606 500.836 111.606C502.356 111.606 503.65 111.953 504.716 112.646C505.783 113.313 506.53 114.286 506.956 115.566C507.383 116.819 507.396 118.326 506.996 120.086L504.236 132.006H502.236L504.956 120.126C505.463 117.966 505.276 116.299 504.396 115.126C503.516 113.953 502.156 113.366 500.316 113.366C498.85 113.366 497.57 113.686 496.476 114.326C495.383 114.939 494.476 115.806 493.756 116.926C493.036 118.019 492.503 119.299 492.156 120.766L489.556 132.006H487.556Z" fill="#3D435B"/>
<path d="M5.64 97.1854V32.7014H26.602C34.6233 32.7014 40.9213 35.3334 45.496 40.5974C50.1333 45.7988 52.452 53.6008 52.452 64.0034C52.452 75.0328 50.1333 83.3361 45.496 88.9134C40.9213 94.4281 34.6233 97.1854 26.602 97.1854H5.64ZM17.672 86.4694H25.474C29.9233 86.4694 33.464 84.8088 36.096 81.4874C38.728 78.1034 40.044 73.0588 40.044 66.3534V61.6534C40.044 55.5748 38.728 51.0314 36.096 48.0234C33.464 44.9528 29.9233 43.4174 25.474 43.4174H17.672V86.4694ZM60.7049 97.1854V47.7414H71.9849V97.1854H60.7049ZM60.6109 40.0334V29.2234H71.9849V40.0334H60.6109ZM89.4256 114.293C86.4176 114.293 83.8482 113.228 81.7176 111.097C79.5869 109.029 78.5216 106.303 78.5216 102.919C78.5216 100.475 79.1169 98.4388 80.3076 96.8094C81.5609 95.1801 83.0649 93.8641 84.8196 92.8614C83.6289 92.1094 82.6576 91.1068 81.9056 89.8534C81.2162 88.6001 80.8716 87.1274 80.8716 85.4354C80.8716 83.2421 81.5922 81.4248 83.0336 79.9834C84.4749 78.5421 86.1669 77.4768 88.1096 76.7874C86.1669 75.3461 84.6629 73.4974 83.5976 71.2414C82.5949 68.9228 82.0936 66.3221 82.0936 63.4394C82.0936 58.3634 83.6602 54.2901 86.7936 51.2194C89.9269 48.1488 94.4389 46.6134 100.33 46.6134C103.526 46.6134 106.283 47.0834 108.602 48.0234C110.482 46.6448 111.735 45.1094 112.362 43.4174C113.051 41.6628 113.396 40.3468 113.396 39.4694H122.702C122.702 42.9788 121.981 45.7674 120.54 47.8354C119.161 49.9034 117.218 51.3134 114.712 52.0654C115.965 53.4441 116.936 55.1048 117.626 57.0474C118.315 58.9901 118.66 61.1208 118.66 63.4394C118.66 68.5154 117.093 72.5888 113.96 75.6594C110.826 78.7301 106.283 80.2654 100.33 80.2654H95.6296C94.6269 80.2654 93.8122 80.5474 93.1856 81.1114C92.5589 81.6754 92.2456 82.3961 92.2456 83.2734C92.2456 84.0881 92.5276 84.7774 93.0916 85.3414C93.6556 85.9054 94.3449 86.1874 95.1596 86.1874H112.268C115.401 86.1874 118.064 87.3468 120.258 89.6654C122.451 91.9841 123.548 95.1174 123.548 99.0654C123.548 102.136 122.827 104.799 121.386 107.055C119.944 109.374 118.002 111.16 115.558 112.413C113.176 113.667 110.513 114.293 107.568 114.293H89.4256ZM94.4076 105.739H107.098C108.539 105.739 109.73 105.301 110.67 104.423C111.672 103.609 112.174 102.512 112.174 101.133C112.174 99.6921 111.704 98.5641 110.764 97.7494C109.886 96.9974 108.821 96.6214 107.568 96.6214H94.4076C93.1542 96.6214 92.0889 97.0601 91.2116 97.9374C90.3342 98.8148 89.8956 99.8801 89.8956 101.133C89.8956 102.512 90.3342 103.609 91.2116 104.423C92.0889 105.301 93.1542 105.739 94.4076 105.739ZM100.33 71.8994C102.711 71.8994 104.466 71.1474 105.594 69.6434C106.784 68.1394 107.38 66.0714 107.38 63.4394C107.38 60.8074 106.784 58.7394 105.594 57.2354C104.466 55.7314 102.711 54.9794 100.33 54.9794C98.0109 54.9794 96.2562 55.7314 95.0656 57.2354C93.9376 58.7394 93.3736 60.8074 93.3736 63.4394C93.3736 66.0714 93.9376 68.1394 95.0656 69.6434C96.2562 71.1474 98.0109 71.8994 100.33 71.8994ZM129.185 97.1854V47.7414H140.465V97.1854H129.185ZM129.091 40.0334V29.2234H140.465V40.0334H129.091ZM162.982 98.3134C159.974 98.3134 157.624 97.6868 155.932 96.4334C154.24 95.1174 153.049 93.4568 152.36 91.4514C151.671 89.3834 151.326 87.2528 151.326 85.0594V57.2354H146.344V47.7414H151.326L153.018 33.8294H162.606V47.7414H169.75V57.2354H162.606V84.7774C162.606 87.4721 163.922 88.8194 166.554 88.8194H169.75V97.1854C168.935 97.4361 167.87 97.6868 166.554 97.9374C165.238 98.1881 164.047 98.3134 162.982 98.3134ZM184.925 98.3134C183.797 98.3134 182.513 98.1254 181.071 97.7494C179.63 97.3734 178.251 96.6841 176.935 95.6814C175.682 94.6788 174.617 93.2688 173.739 91.4514C172.925 89.6341 172.517 87.2841 172.517 84.4014C172.517 79.9521 173.551 76.4741 175.619 73.9674C177.75 71.4608 180.664 69.7061 184.361 68.7034C188.059 67.6381 192.289 67.1054 197.051 67.1054V61.9354C197.051 60.2434 196.738 58.8021 196.111 57.6114C195.485 56.4208 194.075 55.8254 191.881 55.8254C189.563 55.8254 187.996 56.3894 187.181 57.5174C186.367 58.6454 185.959 59.8048 185.959 60.9954V62.4054H174.961C174.899 62.0921 174.867 61.7788 174.867 61.4654C174.867 61.1521 174.867 60.7761 174.867 60.3374C174.867 56.2014 176.371 52.8801 179.379 50.3734C182.45 47.8668 186.523 46.6134 191.599 46.6134C197.365 46.6134 201.595 47.8981 204.289 50.4674C207.047 52.9741 208.425 56.5461 208.425 61.1834V85.5294C208.425 86.7201 208.707 87.5661 209.271 88.0674C209.835 88.5688 210.431 88.8194 211.057 88.8194H213.313V96.8094C212.687 97.1228 211.841 97.4361 210.775 97.7494C209.71 98.1254 208.331 98.3134 206.639 98.3134C204.383 98.3134 202.503 97.7181 200.999 96.5274C199.495 95.3368 198.461 93.7701 197.897 91.8274H197.427C196.049 93.7701 194.451 95.3368 192.633 96.5274C190.816 97.7181 188.247 98.3134 184.925 98.3134ZM189.625 88.9134C191.443 88.9134 192.884 88.4121 193.949 87.4094C195.015 86.4068 195.798 85.0908 196.299 83.4614C196.801 81.8321 197.051 80.0461 197.051 78.1034V75.2834C194.858 75.2834 192.759 75.5341 190.753 76.0354C188.811 76.4741 187.213 77.2888 185.959 78.4794C184.706 79.6074 184.079 81.2368 184.079 83.3674C184.079 85.0594 184.518 86.4068 185.395 87.4094C186.273 88.4121 187.683 88.9134 189.625 88.9134ZM219.146 97.1854V29.2234H230.426V97.1854H219.146ZM261.83 97.1854V32.7014H278.75L286.74 68.2334C286.99 69.2988 287.241 70.6461 287.492 72.2754C287.805 73.9048 288.087 75.5341 288.338 77.1634C288.651 78.7301 288.87 80.0774 288.996 81.2054C289.184 82.2708 289.278 82.8034 289.278 82.8034H289.654C289.654 82.8034 289.716 82.2394 289.842 81.1114C290.03 79.9834 290.218 78.6048 290.406 76.9754C290.656 75.2834 290.907 73.6541 291.158 72.0874C291.408 70.4581 291.628 69.1734 291.816 68.2334L299.712 32.7014H316.068V97.1854H304.976V56.1074C304.976 55.3554 305.007 54.4154 305.07 53.2874C305.132 52.1594 305.164 51.0314 305.164 49.9034C305.226 48.7128 305.289 47.7414 305.352 46.9894C305.414 46.1748 305.446 45.7674 305.446 45.7674H305.07C304.882 46.5821 304.694 47.4281 304.506 48.3054C304.318 49.1201 304.13 49.9661 303.942 50.8434C303.754 51.6581 303.566 52.5041 303.378 53.3814C303.19 54.1961 303.002 55.0421 302.814 55.9194L293.79 97.1854H283.356L274.238 55.7314C274.05 54.9168 273.862 54.1021 273.674 53.2874C273.486 52.4101 273.298 51.5641 273.11 50.7494C272.922 49.9348 272.734 49.1201 272.546 48.3054C272.358 47.4281 272.17 46.5821 271.982 45.7674H271.606C271.606 45.7674 271.637 46.1748 271.7 46.9894C271.762 47.8041 271.794 48.8068 271.794 49.9974C271.856 51.1881 271.919 52.3474 271.982 53.4754C272.044 54.6034 272.076 55.4808 272.076 56.1074V97.1854H261.83ZM334.738 98.3134C333.61 98.3134 332.325 98.1254 330.884 97.7494C329.442 97.3734 328.064 96.6841 326.748 95.6814C325.494 94.6788 324.429 93.2688 323.552 91.4514C322.737 89.6341 322.33 87.2841 322.33 84.4014C322.33 79.9521 323.364 76.4741 325.432 73.9674C327.562 71.4608 330.476 69.7061 334.174 68.7034C337.871 67.6381 342.101 67.1054 346.864 67.1054V61.9354C346.864 60.2434 346.55 58.8021 345.924 57.6114C345.297 56.4208 343.887 55.8254 341.694 55.8254C339.375 55.8254 337.808 56.3894 336.994 57.5174C336.179 58.6454 335.772 59.8048 335.772 60.9954V62.4054H324.774C324.711 62.0921 324.68 61.7788 324.68 61.4654C324.68 61.1521 324.68 60.7761 324.68 60.3374C324.68 56.2014 326.184 52.8801 329.192 50.3734C332.262 47.8668 336.336 46.6134 341.412 46.6134C347.177 46.6134 351.407 47.8981 354.102 50.4674C356.859 52.9741 358.238 56.5461 358.238 61.1834V85.5294C358.238 86.7201 358.52 87.5661 359.084 88.0674C359.648 88.5688 360.243 88.8194 360.87 88.8194H363.126V96.8094C362.499 97.1228 361.653 97.4361 360.588 97.7494C359.522 98.1254 358.144 98.3134 356.452 98.3134C354.196 98.3134 352.316 97.7181 350.812 96.5274C349.308 95.3368 348.274 93.7701 347.71 91.8274H347.24C345.861 93.7701 344.263 95.3368 342.446 96.5274C340.628 97.7181 338.059 98.3134 334.738 98.3134ZM339.438 88.9134C341.255 88.9134 342.696 88.4121 343.762 87.4094C344.827 86.4068 345.61 85.0908 346.112 83.4614C346.613 81.8321 346.864 80.0461 346.864 78.1034V75.2834C344.67 75.2834 342.571 75.5341 340.566 76.0354C338.623 76.4741 337.025 77.2888 335.772 78.4794C334.518 79.6074 333.892 81.2368 333.892 83.3674C333.892 85.0594 334.33 86.4068 335.208 87.4094C336.085 88.4121 337.495 88.9134 339.438 88.9134ZM376.291 114.293C373.283 114.293 370.713 113.228 368.583 111.097C366.452 109.029 365.387 106.303 365.387 102.919C365.387 100.475 365.982 98.4388 367.173 96.8094C368.426 95.1801 369.93 93.8641 371.685 92.8614C370.494 92.1094 369.523 91.1068 368.771 89.8534C368.081 88.6001 367.737 87.1274 367.737 85.4354C367.737 83.2421 368.457 81.4248 369.899 79.9834C371.34 78.5421 373.032 77.4768 374.975 76.7874C373.032 75.3461 371.528 73.4974 370.463 71.2414C369.46 68.9228 368.959 66.3221 368.959 63.4394C368.959 58.3634 370.525 54.2901 373.659 51.2194C376.792 48.1488 381.304 46.6134 387.195 46.6134C390.391 46.6134 393.148 47.0834 395.467 48.0234C397.347 46.6448 398.6 45.1094 399.227 43.4174C399.916 41.6628 400.261 40.3468 400.261 39.4694H409.567C409.567 42.9788 408.846 45.7674 407.405 47.8354C406.026 49.9034 404.083 51.3134 401.577 52.0654C402.83 53.4441 403.801 55.1048 404.491 57.0474C405.18 58.9901 405.525 61.1208 405.525 63.4394C405.525 68.5154 403.958 72.5888 400.825 75.6594C397.691 78.7301 393.148 80.2654 387.195 80.2654H382.495C381.492 80.2654 380.677 80.5474 380.051 81.1114C379.424 81.6754 379.111 82.3961 379.111 83.2734C379.111 84.0881 379.393 84.7774 379.957 85.3414C380.521 85.9054 381.21 86.1874 382.025 86.1874H399.133C402.266 86.1874 404.929 87.3468 407.123 89.6654C409.316 91.9841 410.413 95.1174 410.413 99.0654C410.413 102.136 409.692 104.799 408.251 107.055C406.809 109.374 404.867 111.16 402.423 112.413C400.041 113.667 397.378 114.293 394.433 114.293H376.291ZM381.273 105.739H393.963C395.404 105.739 396.595 105.301 397.535 104.423C398.537 103.609 399.039 102.512 399.039 101.133C399.039 99.6921 398.569 98.5641 397.629 97.7494C396.751 96.9974 395.686 96.6214 394.433 96.6214H381.273C380.019 96.6214 378.954 97.0601 378.077 97.9374C377.199 98.8148 376.761 99.8801 376.761 101.133C376.761 102.512 377.199 103.609 378.077 104.423C378.954 105.301 380.019 105.739 381.273 105.739ZM387.195 71.8994C389.576 71.8994 391.331 71.1474 392.459 69.6434C393.649 68.1394 394.245 66.0714 394.245 63.4394C394.245 60.8074 393.649 58.7394 392.459 57.2354C391.331 55.7314 389.576 54.9794 387.195 54.9794C384.876 54.9794 383.121 55.7314 381.931 57.2354C380.803 58.7394 380.239 60.8074 380.239 63.4394C380.239 66.0714 380.803 68.1394 381.931 69.6434C383.121 71.1474 384.876 71.8994 387.195 71.8994ZM416.051 97.1854V47.7414H427.331V97.1854H416.051ZM415.957 40.0334V29.2234H427.331V40.0334H415.957ZM454.923 98.3134C448.469 98.3134 443.737 96.2454 440.729 92.1094C437.721 87.9108 436.217 81.3621 436.217 72.4634C436.217 63.5648 437.753 57.0474 440.823 52.9114C443.894 48.7128 448.469 46.6134 454.547 46.6134C459.811 46.6134 464.01 48.1801 467.143 51.3134C470.277 54.4468 471.843 59.4601 471.843 66.3534H460.281C460.281 62.8441 459.811 60.2748 458.871 58.6454C457.931 56.9534 456.49 56.1074 454.547 56.1074C452.166 56.1074 450.474 57.3608 449.471 59.8674C448.469 62.3114 447.967 65.9148 447.967 70.6774V74.2494C447.967 79.0121 448.5 82.6468 449.565 85.1534C450.631 87.5974 452.417 88.8194 454.923 88.8194C456.929 88.8194 458.37 87.9734 459.247 86.2814C460.187 84.5268 460.657 81.9574 460.657 78.5734H471.843C471.843 83.1481 471.154 86.9081 469.775 89.8534C468.397 92.7361 466.423 94.8668 463.853 96.2454C461.347 97.6241 458.37 98.3134 454.923 98.3134Z" fill="#51AB61"/>
<path d="M114.674 148.443C124.514 148.443 132.114 150.723 137.474 155.283C142.914 159.763 145.634 165.763 145.634 173.283C145.634 181.683 142.994 188.043 137.714 192.363C132.434 196.683 124.834 198.843 114.914 198.843L112.514 200.163H98.1139V227.643H74.1139V148.443H114.674ZM110.714 183.483C114.154 183.483 116.714 182.843 118.394 181.563C120.154 180.203 121.034 178.003 121.034 174.963C121.034 171.923 120.154 169.723 118.394 168.363C116.714 167.003 114.154 166.323 110.714 166.323H98.1139V183.483H110.714ZM125.234 188.643L150.194 227.643H123.434L104.114 192.963L125.234 188.643ZM189.463 189.843C189.463 187.603 188.863 185.843 187.663 184.563C186.543 183.203 184.863 182.523 182.623 182.523C180.543 182.523 178.743 183.083 177.223 184.203C175.783 185.323 174.863 187.443 174.463 190.563L153.943 186.843C154.743 180.603 157.663 175.643 162.703 171.963C167.743 168.283 174.943 166.443 184.303 166.443C190.703 166.443 196.063 167.363 200.383 169.203C204.783 170.963 208.063 173.563 210.223 177.003C212.463 180.443 213.583 184.563 213.583 189.363V209.523C213.583 212.723 215.023 214.323 217.903 214.323C219.103 214.323 220.023 214.163 220.663 213.843L219.463 226.923C216.823 228.203 213.543 228.843 209.623 228.843C206.183 228.843 203.143 228.323 200.503 227.283C197.863 226.163 195.783 224.563 194.263 222.483C192.743 220.403 191.983 217.683 191.983 214.323V213.363L194.383 213.003C194.383 216.203 193.383 219.003 191.383 221.403C189.463 223.803 186.903 225.643 183.703 226.923C180.583 228.203 177.103 228.843 173.263 228.843C169.103 228.843 165.543 228.203 162.583 226.923C159.623 225.643 157.343 223.803 155.743 221.403C154.223 219.003 153.463 216.083 153.463 212.643C153.463 208.243 154.783 204.643 157.423 201.843C160.143 199.043 164.223 197.123 169.663 196.083L191.383 191.523L191.263 201.723L182.383 203.763C180.383 204.163 178.903 204.843 177.943 205.803C177.063 206.683 176.623 207.923 176.623 209.523C176.623 211.043 177.143 212.243 178.183 213.123C179.223 213.923 180.503 214.323 182.023 214.323C183.063 214.323 184.023 214.163 184.903 213.843C185.783 213.523 186.543 213.043 187.183 212.403C187.903 211.763 188.463 210.963 188.863 210.003C189.263 209.043 189.463 207.883 189.463 206.523V189.843ZM247.555 228.843C242.675 228.843 238.435 227.643 234.835 225.243C231.315 222.763 228.595 219.203 226.675 214.563C224.835 209.923 223.915 204.363 223.915 197.883C223.915 191.243 224.875 185.603 226.795 180.963C228.715 176.243 231.475 172.643 235.075 170.163C238.755 167.683 243.035 166.443 247.915 166.443C253.595 166.443 258.035 168.243 261.235 171.843C264.435 175.363 266.475 179.883 267.355 185.403L265.195 188.403V142.923H289.435V227.643H267.595L266.155 205.203L268.915 207.963C268.435 212.043 267.235 215.683 265.315 218.883C263.475 222.003 261.035 224.443 257.995 226.203C255.035 227.963 251.555 228.843 247.555 228.843ZM256.915 211.563C258.675 211.563 260.155 211.043 261.355 210.003C262.555 208.963 263.475 207.403 264.115 205.323C264.835 203.243 265.195 200.643 265.195 197.523C265.195 194.563 264.875 192.083 264.235 190.083C263.675 188.003 262.755 186.443 261.475 185.403C260.275 184.363 258.755 183.843 256.915 183.843C254.275 183.843 252.155 184.883 250.555 186.963C249.035 188.963 248.275 192.523 248.275 197.643C248.275 202.763 249.035 206.363 250.555 208.443C252.075 210.523 254.195 211.563 256.915 211.563ZM313.31 162.363C308.51 162.363 305.03 161.523 302.87 159.843C300.79 158.163 299.75 155.443 299.75 151.683C299.75 147.843 300.79 145.083 302.87 143.403C305.03 141.723 308.51 140.883 313.31 140.883C318.11 140.883 321.55 141.723 323.63 143.403C325.79 145.083 326.87 147.843 326.87 151.683C326.87 155.443 325.79 158.163 323.63 159.843C321.55 161.523 318.11 162.363 313.31 162.363ZM325.43 167.643V227.643H301.19V167.643H325.43ZM367.046 166.443C373.766 166.443 379.286 167.403 383.606 169.323C388.006 171.163 391.326 173.603 393.566 176.643C395.806 179.603 397.086 182.723 397.406 186.003L374.966 192.843C374.726 189.563 374.046 187.123 372.926 185.523C371.886 183.923 370.206 183.123 367.886 183.123C365.886 183.123 364.206 183.603 362.846 184.563C361.486 185.523 360.486 187.083 359.846 189.243C359.206 191.403 358.886 194.283 358.886 197.883C358.886 201.563 359.246 204.443 359.966 206.523C360.766 208.603 361.846 210.083 363.206 210.963C364.646 211.763 366.246 212.163 368.006 212.163C369.606 212.163 370.886 211.843 371.846 211.203C372.886 210.483 373.726 209.483 374.366 208.203C375.006 206.843 375.406 205.243 375.566 203.403L397.286 210.243C396.966 213.683 395.566 216.803 393.086 219.603C390.686 222.403 387.366 224.643 383.126 226.323C378.886 228.003 373.886 228.843 368.126 228.843C361.246 228.843 355.286 227.643 350.246 225.243C345.206 222.763 341.326 219.203 338.606 214.563C335.886 209.923 334.526 204.283 334.526 197.643C334.526 191.003 335.886 185.363 338.606 180.723C341.326 176.083 345.126 172.563 350.006 170.163C354.886 167.683 360.566 166.443 367.046 166.443ZM438.486 189.843C438.486 187.603 437.886 185.843 436.686 184.563C435.566 183.203 433.886 182.523 431.646 182.523C429.566 182.523 427.766 183.083 426.246 184.203C424.806 185.323 423.886 187.443 423.486 190.563L402.966 186.843C403.766 180.603 406.686 175.643 411.726 171.963C416.766 168.283 423.966 166.443 433.326 166.443C439.726 166.443 445.086 167.363 449.406 169.203C453.806 170.963 457.086 173.563 459.246 177.003C461.486 180.443 462.606 184.563 462.606 189.363V209.523C462.606 212.723 464.046 214.323 466.926 214.323C468.126 214.323 469.046 214.163 469.686 213.843L468.486 226.923C465.846 228.203 462.566 228.843 458.646 228.843C455.206 228.843 452.166 228.323 449.526 227.283C446.886 226.163 444.806 224.563 443.286 222.483C441.766 220.403 441.006 217.683 441.006 214.323V213.363L443.406 213.003C443.406 216.203 442.406 219.003 440.406 221.403C438.486 223.803 435.926 225.643 432.726 226.923C429.606 228.203 426.126 228.843 422.286 228.843C418.126 228.843 414.566 228.203 411.606 226.923C408.646 225.643 406.366 223.803 404.766 221.403C403.246 219.003 402.486 216.083 402.486 212.643C402.486 208.243 403.806 204.643 406.446 201.843C409.166 199.043 413.246 197.123 418.686 196.083L440.406 191.523L440.286 201.723L431.406 203.763C429.406 204.163 427.926 204.843 426.966 205.803C426.086 206.683 425.646 207.923 425.646 209.523C425.646 211.043 426.166 212.243 427.206 213.123C428.246 213.923 429.526 214.323 431.046 214.323C432.086 214.323 433.046 214.163 433.926 213.843C434.806 213.523 435.566 213.043 436.206 212.403C436.926 211.763 437.486 210.963 437.886 210.003C438.286 209.043 438.486 207.883 438.486 206.523V189.843ZM499.685 142.923V205.323C499.685 207.883 500.085 209.723 500.885 210.843C501.685 211.963 503.085 212.523 505.085 212.523C506.045 212.523 506.885 212.483 507.605 212.403C508.405 212.243 509.245 212.003 510.125 211.683L508.805 225.363C507.365 226.403 505.325 227.243 502.685 227.883C500.125 228.523 497.565 228.843 495.005 228.843C488.045 228.843 483.045 227.323 480.005 224.283C476.965 221.163 475.445 216.003 475.445 208.803V142.923H499.685ZM530.807 204.843C535.127 204.843 538.447 205.883 540.767 207.963C543.087 210.043 544.247 212.963 544.247 216.723C544.247 220.483 543.087 223.403 540.767 225.483C538.447 227.563 535.127 228.603 530.807 228.603C526.647 228.603 523.367 227.563 520.967 225.483C518.567 223.403 517.367 220.483 517.367 216.723C517.367 212.963 518.567 210.043 520.967 207.963C523.367 205.883 526.647 204.843 530.807 204.843ZM585.945 228.843C578.985 228.843 572.785 227.323 567.345 224.283C561.905 221.243 557.625 216.683 554.505 210.603C551.385 204.523 549.825 197.083 549.825 188.283C549.825 179.643 551.425 172.283 554.625 166.203C557.905 160.043 562.585 155.363 568.665 152.163C574.745 148.883 581.945 147.243 590.265 147.243C599.625 147.243 607.145 148.923 612.825 152.283C618.585 155.643 623.025 160.963 626.145 168.243L603.345 176.763C602.545 172.843 601.025 170.083 598.785 168.483C596.545 166.803 593.745 165.963 590.385 165.963C586.945 165.963 584.065 166.803 581.745 168.483C579.505 170.083 577.825 172.523 576.705 175.803C575.585 179.083 575.025 183.163 575.025 188.043C575.025 193.323 575.625 197.643 576.825 201.003C578.105 204.363 580.025 206.843 582.585 208.443C585.145 209.963 588.305 210.723 592.065 210.723C593.985 210.723 595.745 210.523 597.345 210.123C598.945 209.643 600.345 208.963 601.545 208.083C602.825 207.203 603.785 206.123 604.425 204.843C605.065 203.483 605.385 201.923 605.385 200.163V199.563H589.785V183.843H626.025V227.643H609.585L607.665 207.603L611.505 211.443C610.065 217.043 607.185 221.363 602.865 224.403C598.545 227.363 592.905 228.843 585.945 228.843ZM637.986 227.643V167.643H659.706L660.426 181.683C661.786 176.963 663.906 173.243 666.786 170.523C669.746 167.803 673.586 166.443 678.306 166.443C679.986 166.443 681.346 166.603 682.386 166.923C683.426 167.163 684.186 167.483 684.666 167.883L682.506 187.563C681.706 187.243 680.666 186.963 679.386 186.723C678.106 186.483 676.626 186.363 674.946 186.363C672.546 186.363 670.386 186.803 668.466 187.683C666.546 188.563 665.026 189.883 663.906 191.643C662.786 193.323 662.226 195.483 662.226 198.123V227.643H637.986ZM723.135 189.843C723.135 187.603 722.535 185.843 721.335 184.563C720.215 183.203 718.535 182.523 716.295 182.523C714.215 182.523 712.415 183.083 710.895 184.203C709.455 185.323 708.535 187.443 708.135 190.563L687.615 186.843C688.415 180.603 691.335 175.643 696.375 171.963C701.415 168.283 708.615 166.443 717.975 166.443C724.375 166.443 729.735 167.363 734.055 169.203C738.455 170.963 741.735 173.563 743.895 177.003C746.135 180.443 747.255 184.563 747.255 189.363V209.523C747.255 212.723 748.695 214.323 751.575 214.323C752.775 214.323 753.695 214.163 754.335 213.843L753.135 226.923C750.495 228.203 747.215 228.843 743.295 228.843C739.855 228.843 736.815 228.323 734.175 227.283C731.535 226.163 729.455 224.563 727.935 222.483C726.415 220.403 725.655 217.683 725.655 214.323V213.363L728.055 213.003C728.055 216.203 727.055 219.003 725.055 221.403C723.135 223.803 720.575 225.643 717.375 226.923C714.255 228.203 710.775 228.843 706.935 228.843C702.775 228.843 699.215 228.203 696.255 226.923C693.295 225.643 691.015 223.803 689.415 221.403C687.895 219.003 687.135 216.083 687.135 212.643C687.135 208.243 688.455 204.643 691.095 201.843C693.815 199.043 697.895 197.123 703.335 196.083L725.055 191.523L724.935 201.723L716.055 203.763C714.055 204.163 712.575 204.843 711.615 205.803C710.735 206.683 710.295 207.923 710.295 209.523C710.295 211.043 710.815 212.243 711.855 213.123C712.895 213.923 714.175 214.323 715.695 214.323C716.735 214.323 717.695 214.163 718.575 213.843C719.455 213.523 720.215 213.043 720.855 212.403C721.575 211.763 722.135 210.963 722.535 210.003C722.935 209.043 723.135 207.883 723.135 206.523V189.843ZM760.213 252.843V167.643H782.173L783.373 191.883L780.613 189.003C781.013 184.603 782.133 180.723 783.973 177.363C785.813 174.003 788.253 171.363 791.293 169.443C794.413 167.443 798.013 166.443 802.093 166.443C807.053 166.443 811.293 167.683 814.813 170.163C818.333 172.563 821.013 176.083 822.853 180.723C824.773 185.283 825.733 190.843 825.733 197.403C825.733 203.963 824.773 209.603 822.853 214.323C820.933 219.043 818.173 222.643 814.573 225.123C811.053 227.603 806.853 228.843 801.973 228.843C796.293 228.843 791.813 227.083 788.533 223.563C785.333 219.963 783.253 215.483 782.293 210.123L784.453 206.883V252.843H760.213ZM792.733 211.443C795.453 211.443 797.573 210.443 799.093 208.443C800.613 206.363 801.373 202.763 801.373 197.643C801.373 192.523 800.613 188.923 799.093 186.843C797.573 184.763 795.493 183.723 792.853 183.723C791.173 183.723 789.693 184.243 788.413 185.283C787.133 186.323 786.133 187.883 785.413 189.963C784.773 191.963 784.453 194.523 784.453 197.643C784.453 200.603 784.733 203.123 785.293 205.203C785.933 207.283 786.893 208.843 788.173 209.883C789.453 210.923 790.973 211.443 792.733 211.443ZM835.447 227.643V142.923H859.687V179.283C861.367 175.123 863.807 171.963 867.007 169.803C870.287 167.563 874.127 166.443 878.527 166.443C882.607 166.443 886.087 167.243 888.967 168.843C891.927 170.363 894.207 172.683 895.807 175.803C897.407 178.843 898.207 182.603 898.207 187.083V227.643H873.967V193.563C873.967 190.123 873.407 187.763 872.287 186.483C871.247 185.203 869.767 184.563 867.847 184.563C866.247 184.563 864.807 184.963 863.527 185.763C862.327 186.563 861.367 187.843 860.647 189.603C860.007 191.283 859.687 193.443 859.687 196.083V227.643H835.447ZM921.981 162.363C917.181 162.363 913.701 161.523 911.541 159.843C909.461 158.163 908.421 155.443 908.421 151.683C908.421 147.843 909.461 145.083 911.541 143.403C913.701 141.723 917.181 140.883 921.981 140.883C926.781 140.883 930.221 141.723 932.301 143.403C934.461 145.083 935.541 147.843 935.541 151.683C935.541 155.443 934.461 158.163 932.301 159.843C930.221 161.523 926.781 162.363 921.981 162.363ZM934.101 167.643V227.643H909.861V167.643H934.101ZM975.718 166.443C982.438 166.443 987.958 167.403 992.278 169.323C996.678 171.163 999.998 173.603 1002.24 176.643C1004.48 179.603 1005.76 182.723 1006.08 186.003L983.638 192.843C983.398 189.563 982.718 187.123 981.598 185.523C980.558 183.923 978.878 183.123 976.558 183.123C974.558 183.123 972.878 183.603 971.518 184.563C970.158 185.523 969.158 187.083 968.518 189.243C967.878 191.403 967.558 194.283 967.558 197.883C967.558 201.563 967.918 204.443 968.638 206.523C969.438 208.603 970.518 210.083 971.878 210.963C973.318 211.763 974.918 212.163 976.678 212.163C978.278 212.163 979.558 211.843 980.518 211.203C981.558 210.483 982.398 209.483 983.038 208.203C983.678 206.843 984.078 205.243 984.238 203.403L1005.96 210.243C1005.64 213.683 1004.24 216.803 1001.76 219.603C999.358 222.403 996.038 224.643 991.798 226.323C987.558 228.003 982.558 228.843 976.798 228.843C969.918 228.843 963.958 227.643 958.918 225.243C953.878 222.763 949.998 219.203 947.278 214.563C944.558 209.923 943.198 204.283 943.198 197.643C943.198 191.003 944.558 185.363 947.278 180.723C949.998 176.083 953.798 172.563 958.678 170.163C963.558 167.683 969.238 166.443 975.718 166.443ZM1040.68 228.843C1034.76 228.843 1029.16 227.963 1023.88 226.203C1018.6 224.443 1014.08 221.843 1010.32 218.403L1020.04 205.563C1022.2 207.723 1024.96 209.603 1028.32 211.203C1031.76 212.803 1035.36 213.603 1039.12 213.603C1041.04 213.603 1042.64 213.363 1043.92 212.883C1045.28 212.403 1045.96 211.563 1045.96 210.363C1045.96 209.563 1045.6 208.923 1044.88 208.443C1044.24 207.883 1042.84 207.403 1040.68 207.003L1034.44 205.803C1026.28 204.203 1020.48 201.883 1017.04 198.843C1013.68 195.723 1012 191.643 1012 186.603C1012 183.323 1013 180.163 1015 177.123C1017.08 174.003 1020.32 171.443 1024.72 169.443C1029.2 167.443 1034.96 166.443 1042 166.443C1048.16 166.443 1053.64 167.283 1058.44 168.963C1063.32 170.563 1067.2 172.883 1070.08 175.923L1060.6 188.403C1058.44 186.323 1055.72 184.683 1052.44 183.483C1049.16 182.283 1046.04 181.683 1043.08 181.683C1041.56 181.683 1040.28 181.803 1039.24 182.043C1038.2 182.283 1037.4 182.643 1036.84 183.123C1036.36 183.523 1036.12 184.083 1036.12 184.803C1036.12 185.603 1036.56 186.323 1037.44 186.963C1038.4 187.523 1040.12 188.043 1042.6 188.523L1052.2 190.203C1058.52 191.323 1063.12 193.403 1066 196.443C1068.88 199.483 1070.32 203.203 1070.32 207.603C1070.32 211.523 1069.28 215.083 1067.2 218.283C1065.12 221.483 1061.88 224.043 1057.48 225.963C1053.16 227.883 1047.56 228.843 1040.68 228.843Z" fill="#2F8F6B"/>
</svg>
