<svg width="247" height="331" viewBox="0 0 247 331" fill="none" xmlns="http://www.w3.org/2000/svg">
<g clip-path="url(#clip0_320_1574)">
<rect x="245.435" y="1.35102" width="327.848" height="244.084" rx="48.6367" transform="rotate(90 245.435 1.35102)" stroke="#D5D46E" stroke-width="2.70204"/>
<g clip-path="url(#clip1_320_1574)">
<path d="M82.8606 41.1048C84.7835 41.1048 86.3423 39.5422 86.3423 37.6146C86.3423 35.6871 84.7835 34.1245 82.8606 34.1245C80.9377 34.1245 79.3789 35.6871 79.3789 37.6146C79.3789 39.5422 80.9377 41.1048 82.8606 41.1048Z" fill="#D5D46E"/>
<path d="M89.6212 41.1048C91.5441 41.1048 93.1029 39.5422 93.1029 37.6146C93.1029 35.6871 91.5441 34.1245 89.6212 34.1245C87.6983 34.1245 86.1395 35.6871 86.1395 37.6146C86.1395 39.5422 87.6983 41.1048 89.6212 41.1048Z" fill="#D5D46E"/>
<path d="M96.3818 41.1048C98.3047 41.1048 99.8635 39.5422 99.8635 37.6146C99.8635 35.6871 98.3047 34.1245 96.3818 34.1245C94.4589 34.1245 92.9001 35.6871 92.9001 37.6146C92.9001 39.5422 94.4589 41.1048 96.3818 41.1048Z" fill="#D5D46E"/>
<path d="M103.142 41.1048C105.065 41.1048 106.624 39.5422 106.624 37.6146C106.624 35.6871 105.065 34.1245 103.142 34.1245C101.219 34.1245 99.6606 35.6871 99.6606 37.6146C99.6606 39.5422 101.219 41.1048 103.142 41.1048Z" fill="#D5D46E"/>
<path d="M109.903 41.1048C111.826 41.1048 113.385 39.5422 113.385 37.6146C113.385 35.6871 111.826 34.1245 109.903 34.1245C107.98 34.1245 106.421 35.6871 106.421 37.6146C106.421 39.5422 107.98 41.1048 109.903 41.1048Z" fill="#D5D46E"/>
<path d="M136.945 41.1048C138.868 41.1048 140.427 39.5422 140.427 37.6146C140.427 35.6871 138.868 34.1245 136.945 34.1245C135.022 34.1245 133.464 35.6871 133.464 37.6146C133.464 39.5422 135.022 41.1048 136.945 41.1048Z" fill="#D5D46E"/>
<path d="M143.706 41.1048C145.629 41.1048 147.188 39.5422 147.188 37.6146C147.188 35.6871 145.629 34.1245 143.706 34.1245C141.783 34.1245 140.224 35.6871 140.224 37.6146C140.224 39.5422 141.783 41.1048 143.706 41.1048Z" fill="#D5D46E"/>
<path d="M150.467 41.1048C152.39 41.1048 153.948 39.5422 153.948 37.6146C153.948 35.6871 152.39 34.1245 150.467 34.1245C148.544 34.1245 146.985 35.6871 146.985 37.6146C146.985 39.5422 148.544 41.1048 150.467 41.1048Z" fill="#D5D46E"/>
<path d="M82.8606 47.8818C84.7835 47.8818 86.3423 46.3192 86.3423 44.3917C86.3423 42.4641 84.7835 40.9015 82.8606 40.9015C80.9377 40.9015 79.3789 42.4641 79.3789 44.3917C79.3789 46.3192 80.9377 47.8818 82.8606 47.8818Z" fill="#D5D46E"/>
<path d="M89.6212 47.8818C91.5441 47.8818 93.1029 46.3192 93.1029 44.3917C93.1029 42.4641 91.5441 40.9015 89.6212 40.9015C87.6983 40.9015 86.1395 42.4641 86.1395 44.3917C86.1395 46.3192 87.6983 47.8818 89.6212 47.8818Z" fill="#D5D46E"/>
<path d="M96.3818 47.8818C98.3047 47.8818 99.8635 46.3192 99.8635 44.3917C99.8635 42.4641 98.3047 40.9015 96.3818 40.9015C94.4589 40.9015 92.9001 42.4641 92.9001 44.3917C92.9001 46.3192 94.4589 47.8818 96.3818 47.8818Z" fill="#D5D46E"/>
<path d="M109.903 47.8818C111.826 47.8818 113.385 46.3192 113.385 44.3917C113.385 42.4641 111.826 40.9015 109.903 40.9015C107.98 40.9015 106.421 42.4641 106.421 44.3917C106.421 46.3192 107.98 47.8818 109.903 47.8818Z" fill="#D5D46E"/>
<path d="M123.424 47.8818C125.347 47.8818 126.906 46.3192 126.906 44.3917C126.906 42.4641 125.347 40.9015 123.424 40.9015C121.501 40.9015 119.942 42.4641 119.942 44.3917C119.942 46.3192 121.501 47.8818 123.424 47.8818Z" fill="#D5D46E"/>
<path d="M130.185 47.8818C132.108 47.8818 133.666 46.3192 133.666 44.3917C133.666 42.4641 132.108 40.9015 130.185 40.9015C128.262 40.9015 126.703 42.4641 126.703 44.3917C126.703 46.3192 128.262 47.8818 130.185 47.8818Z" fill="#D5D46E"/>
<path d="M136.945 47.8818C138.868 47.8818 140.427 46.3192 140.427 44.3917C140.427 42.4641 138.868 40.9015 136.945 40.9015C135.022 40.9015 133.464 42.4641 133.464 44.3917C133.464 46.3192 135.022 47.8818 136.945 47.8818Z" fill="#D5D46E"/>
<path d="M143.706 47.8818C145.629 47.8818 147.188 46.3192 147.188 44.3917C147.188 42.4641 145.629 40.9015 143.706 40.9015C141.783 40.9015 140.224 42.4641 140.224 44.3917C140.224 46.3192 141.783 47.8818 143.706 47.8818Z" fill="#D5D46E"/>
<path d="M163.988 47.8818C165.911 47.8818 167.47 46.3192 167.47 44.3917C167.47 42.4641 165.911 40.9015 163.988 40.9015C162.065 40.9015 160.506 42.4641 160.506 44.3917C160.506 46.3192 162.065 47.8818 163.988 47.8818Z" fill="#D5D46E"/>
<path d="M82.8606 54.6586C84.7835 54.6586 86.3423 53.096 86.3423 51.1685C86.3423 49.2409 84.7835 47.6783 82.8606 47.6783C80.9377 47.6783 79.3789 49.2409 79.3789 51.1685C79.3789 53.096 80.9377 54.6586 82.8606 54.6586Z" fill="#D5D46E"/>
<path d="M103.142 54.6586C105.065 54.6586 106.624 53.096 106.624 51.1685C106.624 49.2409 105.065 47.6783 103.142 47.6783C101.219 47.6783 99.6606 49.2409 99.6606 51.1685C99.6606 53.096 101.219 54.6586 103.142 54.6586Z" fill="#D5D46E"/>
<path d="M116.664 54.6586C118.586 54.6586 120.145 53.096 120.145 51.1685C120.145 49.2409 118.586 47.6783 116.664 47.6783C114.741 47.6783 113.182 49.2409 113.182 51.1685C113.182 53.096 114.741 54.6586 116.664 54.6586Z" fill="#D5D46E"/>
<path d="M123.424 54.6586C125.347 54.6586 126.906 53.096 126.906 51.1685C126.906 49.2409 125.347 47.6783 123.424 47.6783C121.501 47.6783 119.942 49.2409 119.942 51.1685C119.942 53.096 121.501 54.6586 123.424 54.6586Z" fill="#D5D46E"/>
<path d="M136.945 54.6586C138.868 54.6586 140.427 53.096 140.427 51.1685C140.427 49.2409 138.868 47.6783 136.945 47.6783C135.022 47.6783 133.464 49.2409 133.464 51.1685C133.464 53.096 135.022 54.6586 136.945 54.6586Z" fill="#D5D46E"/>
<path d="M150.467 54.6586C152.39 54.6586 153.948 53.096 153.948 51.1685C153.948 49.2409 152.39 47.6783 150.467 47.6783C148.544 47.6783 146.985 49.2409 146.985 51.1685C146.985 53.096 148.544 54.6586 150.467 54.6586Z" fill="#D5D46E"/>
<path d="M96.3818 61.4356C98.3047 61.4356 99.8635 59.873 99.8635 57.9455C99.8635 56.018 98.3047 54.4554 96.3818 54.4554C94.4589 54.4554 92.9001 56.018 92.9001 57.9455C92.9001 59.873 94.4589 61.4356 96.3818 61.4356Z" fill="#D5D46E"/>
<path d="M103.142 61.4356C105.065 61.4356 106.624 59.873 106.624 57.9455C106.624 56.018 105.065 54.4554 103.142 54.4554C101.219 54.4554 99.6606 56.018 99.6606 57.9455C99.6606 59.873 101.219 61.4356 103.142 61.4356Z" fill="#D5D46E"/>
<path d="M116.664 61.4356C118.586 61.4356 120.145 59.873 120.145 57.9455C120.145 56.018 118.586 54.4554 116.664 54.4554C114.741 54.4554 113.182 56.018 113.182 57.9455C113.182 59.873 114.741 61.4356 116.664 61.4356Z" fill="#D5D46E"/>
<path d="M136.945 61.4356C138.868 61.4356 140.427 59.873 140.427 57.9455C140.427 56.018 138.868 54.4554 136.945 54.4554C135.022 54.4554 133.464 56.018 133.464 57.9455C133.464 59.873 135.022 61.4356 136.945 61.4356Z" fill="#D5D46E"/>
<path d="M143.706 61.4356C145.629 61.4356 147.188 59.873 147.188 57.9455C147.188 56.018 145.629 54.4554 143.706 54.4554C141.783 54.4554 140.224 56.018 140.224 57.9455C140.224 59.873 141.783 61.4356 143.706 61.4356Z" fill="#D5D46E"/>
<path d="M157.227 61.4356C159.15 61.4356 160.709 59.873 160.709 57.9455C160.709 56.018 159.15 54.4554 157.227 54.4554C155.304 54.4554 153.745 56.018 153.745 57.9455C153.745 59.873 155.304 61.4356 157.227 61.4356Z" fill="#D5D46E"/>
<path d="M89.6212 68.2124C91.5441 68.2124 93.1029 66.6498 93.1029 64.7223C93.1029 62.7948 91.5441 61.2322 89.6212 61.2322C87.6983 61.2322 86.1395 62.7948 86.1395 64.7223C86.1395 66.6498 87.6983 68.2124 89.6212 68.2124Z" fill="#D5D46E"/>
<path d="M96.3818 68.2124C98.3047 68.2124 99.8635 66.6498 99.8635 64.7223C99.8635 62.7948 98.3047 61.2322 96.3818 61.2322C94.4589 61.2322 92.9001 62.7948 92.9001 64.7223C92.9001 66.6498 94.4589 68.2124 96.3818 68.2124Z" fill="#D5D46E"/>
<path d="M103.142 68.2124C105.065 68.2124 106.624 66.6498 106.624 64.7223C106.624 62.7948 105.065 61.2322 103.142 61.2322C101.219 61.2322 99.6606 62.7948 99.6606 64.7223C99.6606 66.6498 101.219 68.2124 103.142 68.2124Z" fill="#D5D46E"/>
<path d="M123.424 68.2124C125.347 68.2124 126.906 66.6498 126.906 64.7223C126.906 62.7948 125.347 61.2322 123.424 61.2322C121.501 61.2322 119.942 62.7948 119.942 64.7223C119.942 66.6498 121.501 68.2124 123.424 68.2124Z" fill="#D5D46E"/>
<path d="M143.706 68.2124C145.629 68.2124 147.188 66.6498 147.188 64.7223C147.188 62.7948 145.629 61.2322 143.706 61.2322C141.783 61.2322 140.224 62.7948 140.224 64.7223C140.224 66.6498 141.783 68.2124 143.706 68.2124Z" fill="#D5D46E"/>
<path d="M150.467 68.2124C152.39 68.2124 153.948 66.6498 153.948 64.7223C153.948 62.7948 152.39 61.2322 150.467 61.2322C148.544 61.2322 146.985 62.7948 146.985 64.7223C146.985 66.6498 148.544 68.2124 150.467 68.2124Z" fill="#D5D46E"/>
<path d="M157.227 68.2124C159.15 68.2124 160.709 66.6498 160.709 64.7223C160.709 62.7948 159.15 61.2322 157.227 61.2322C155.304 61.2322 153.745 62.7948 153.745 64.7223C153.745 66.6498 155.304 68.2124 157.227 68.2124Z" fill="#D5D46E"/>
<path d="M82.8606 74.9894C84.7835 74.9894 86.3423 73.4269 86.3423 71.4993C86.3423 69.5718 84.7835 68.0092 82.8606 68.0092C80.9377 68.0092 79.3789 69.5718 79.3789 71.4993C79.3789 73.4269 80.9377 74.9894 82.8606 74.9894Z" fill="#D5D46E"/>
<path d="M136.945 74.9894C138.868 74.9894 140.427 73.4269 140.427 71.4993C140.427 69.5718 138.868 68.0092 136.945 68.0092C135.022 68.0092 133.464 69.5718 133.464 71.4993C133.464 73.4269 135.022 74.9894 136.945 74.9894Z" fill="#D5D46E"/>
<path d="M143.706 74.9894C145.629 74.9894 147.188 73.4269 147.188 71.4993C147.188 69.5718 145.629 68.0092 143.706 68.0092C141.783 68.0092 140.224 69.5718 140.224 71.4993C140.224 73.4269 141.783 74.9894 143.706 74.9894Z" fill="#D5D46E"/>
<path d="M82.8606 81.7663C84.7835 81.7663 86.3423 80.2037 86.3423 78.2761C86.3423 76.3486 84.7835 74.786 82.8606 74.786C80.9377 74.786 79.3789 76.3486 79.3789 78.2761C79.3789 80.2037 80.9377 81.7663 82.8606 81.7663Z" fill="#D5D46E"/>
<path d="M96.3818 81.7663C98.3047 81.7663 99.8635 80.2037 99.8635 78.2761C99.8635 76.3486 98.3047 74.786 96.3818 74.786C94.4589 74.786 92.9001 76.3486 92.9001 78.2761C92.9001 80.2037 94.4589 81.7663 96.3818 81.7663Z" fill="#D5D46E"/>
<path d="M109.903 81.7663C111.826 81.7663 113.385 80.2037 113.385 78.2761C113.385 76.3486 111.826 74.786 109.903 74.786C107.98 74.786 106.421 76.3486 106.421 78.2761C106.421 80.2037 107.98 81.7663 109.903 81.7663Z" fill="#D5D46E"/>
<path d="M123.424 81.7663C125.347 81.7663 126.906 80.2037 126.906 78.2761C126.906 76.3486 125.347 74.786 123.424 74.786C121.501 74.786 119.942 76.3486 119.942 78.2761C119.942 80.2037 121.501 81.7663 123.424 81.7663Z" fill="#D5D46E"/>
<path d="M136.945 81.7663C138.868 81.7663 140.427 80.2037 140.427 78.2761C140.427 76.3486 138.868 74.786 136.945 74.786C135.022 74.786 133.464 76.3486 133.464 78.2761C133.464 80.2037 135.022 81.7663 136.945 81.7663Z" fill="#D5D46E"/>
<path d="M150.467 81.7663C152.39 81.7663 153.948 80.2037 153.948 78.2761C153.948 76.3486 152.39 74.786 150.467 74.786C148.544 74.786 146.985 76.3486 146.985 78.2761C146.985 80.2037 148.544 81.7663 150.467 81.7663Z" fill="#D5D46E"/>
<path d="M163.988 81.7663C165.911 81.7663 167.47 80.2037 167.47 78.2761C167.47 76.3486 165.911 74.786 163.988 74.786C162.065 74.786 160.506 76.3486 160.506 78.2761C160.506 80.2037 162.065 81.7663 163.988 81.7663Z" fill="#D5D46E"/>
<path d="M82.8606 88.5433C84.7835 88.5433 86.3423 86.9807 86.3423 85.0532C86.3423 83.1256 84.7835 81.563 82.8606 81.563C80.9377 81.563 79.3789 83.1256 79.3789 85.0532C79.3789 86.9807 80.9377 88.5433 82.8606 88.5433Z" fill="#D5D46E"/>
<path d="M116.664 88.5433C118.586 88.5433 120.145 86.9807 120.145 85.0532C120.145 83.1256 118.586 81.563 116.664 81.563C114.741 81.563 113.182 83.1256 113.182 85.0532C113.182 86.9807 114.741 88.5433 116.664 88.5433Z" fill="#D5D46E"/>
<path d="M123.424 88.5433C125.347 88.5433 126.906 86.9807 126.906 85.0532C126.906 83.1256 125.347 81.563 123.424 81.563C121.501 81.563 119.942 83.1256 119.942 85.0532C119.942 86.9807 121.501 88.5433 123.424 88.5433Z" fill="#D5D46E"/>
<path d="M136.945 88.5433C138.868 88.5433 140.427 86.9807 140.427 85.0532C140.427 83.1256 138.868 81.563 136.945 81.563C135.022 81.563 133.464 83.1256 133.464 85.0532C133.464 86.9807 135.022 88.5433 136.945 88.5433Z" fill="#D5D46E"/>
<path d="M143.706 88.5433C145.629 88.5433 147.188 86.9807 147.188 85.0532C147.188 83.1256 145.629 81.563 143.706 81.563C141.783 81.563 140.224 83.1256 140.224 85.0532C140.224 86.9807 141.783 88.5433 143.706 88.5433Z" fill="#D5D46E"/>
<path d="M150.467 88.5433C152.39 88.5433 153.948 86.9807 153.948 85.0532C153.948 83.1256 152.39 81.563 150.467 81.563C148.544 81.563 146.985 83.1256 146.985 85.0532C146.985 86.9807 148.544 88.5433 150.467 88.5433Z" fill="#D5D46E"/>
<path d="M157.227 88.5433C159.15 88.5433 160.709 86.9807 160.709 85.0532C160.709 83.1256 159.15 81.563 157.227 81.563C155.304 81.563 153.745 83.1256 153.745 85.0532C153.745 86.9807 155.304 88.5433 157.227 88.5433Z" fill="#D5D46E"/>
<path d="M42.2969 95.3201C44.2198 95.3201 45.7786 93.7575 45.7786 91.83C45.7786 89.9024 44.2198 88.3398 42.2969 88.3398C40.374 88.3398 38.8152 89.9024 38.8152 91.83C38.8152 93.7575 40.374 95.3201 42.2969 95.3201Z" fill="#D5D46E"/>
<path d="M49.0575 95.3201C50.9804 95.3201 52.5392 93.7575 52.5392 91.83C52.5392 89.9024 50.9804 88.3398 49.0575 88.3398C47.1346 88.3398 45.5758 89.9024 45.5758 91.83C45.5758 93.7575 47.1346 95.3201 49.0575 95.3201Z" fill="#D5D46E"/>
<path d="M55.8181 95.3201C57.741 95.3201 59.2998 93.7575 59.2998 91.83C59.2998 89.9024 57.741 88.3398 55.8181 88.3398C53.8952 88.3398 52.3364 89.9024 52.3364 91.83C52.3364 93.7575 53.8952 95.3201 55.8181 95.3201Z" fill="#D5D46E"/>
<path d="M69.3395 95.3201C71.2623 95.3201 72.8212 93.7575 72.8212 91.83C72.8212 89.9024 71.2623 88.3398 69.3395 88.3398C67.4166 88.3398 65.8577 89.9024 65.8577 91.83C65.8577 93.7575 67.4166 95.3201 69.3395 95.3201Z" fill="#D5D46E"/>
<path d="M82.8606 95.3201C84.7835 95.3201 86.3423 93.7575 86.3423 91.83C86.3423 89.9024 84.7835 88.3398 82.8606 88.3398C80.9377 88.3398 79.3789 89.9024 79.3789 91.83C79.3789 93.7575 80.9377 95.3201 82.8606 95.3201Z" fill="#D5D46E"/>
<path d="M89.6212 95.3201C91.5441 95.3201 93.1029 93.7575 93.1029 91.83C93.1029 89.9024 91.5441 88.3398 89.6212 88.3398C87.6983 88.3398 86.1395 89.9024 86.1395 91.83C86.1395 93.7575 87.6983 95.3201 89.6212 95.3201Z" fill="#D5D46E"/>
<path d="M103.142 95.3201C105.065 95.3201 106.624 93.7575 106.624 91.83C106.624 89.9024 105.065 88.3398 103.142 88.3398C101.219 88.3398 99.6606 89.9024 99.6606 91.83C99.6606 93.7575 101.219 95.3201 103.142 95.3201Z" fill="#D5D46E"/>
<path d="M116.664 95.3201C118.586 95.3201 120.145 93.7575 120.145 91.83C120.145 89.9024 118.586 88.3398 116.664 88.3398C114.741 88.3398 113.182 89.9024 113.182 91.83C113.182 93.7575 114.741 95.3201 116.664 95.3201Z" fill="#D5D46E"/>
<path d="M123.424 95.3201C125.347 95.3201 126.906 93.7575 126.906 91.83C126.906 89.9024 125.347 88.3398 123.424 88.3398C121.501 88.3398 119.942 89.9024 119.942 91.83C119.942 93.7575 121.501 95.3201 123.424 95.3201Z" fill="#D5D46E"/>
<path d="M170.748 95.3201C172.671 95.3201 174.23 93.7575 174.23 91.83C174.23 89.9024 172.671 88.3398 170.748 88.3398C168.825 88.3398 167.267 89.9024 167.267 91.83C167.267 93.7575 168.825 95.3201 170.748 95.3201Z" fill="#D5D46E"/>
<path d="M177.509 95.32C179.432 95.32 180.991 93.7574 180.991 91.8299C180.991 89.9023 179.432 88.3398 177.509 88.3398C175.586 88.3398 174.027 89.9023 174.027 91.8299C174.027 93.7574 175.586 95.32 177.509 95.32Z" fill="#D5D46E"/>
<path d="M184.27 95.3201C186.192 95.3201 187.751 93.7575 187.751 91.83C187.751 89.9024 186.192 88.3398 184.27 88.3398C182.347 88.3398 180.788 89.9024 180.788 91.83C180.788 93.7575 182.347 95.3201 184.27 95.3201Z" fill="#D5D46E"/>
<path d="M204.551 95.3201C206.474 95.3201 208.033 93.7575 208.033 91.83C208.033 89.9024 206.474 88.3398 204.551 88.3398C202.628 88.3398 201.07 89.9024 201.07 91.83C201.07 93.7575 202.628 95.3201 204.551 95.3201Z" fill="#D5D46E"/>
<path d="M211.312 95.3201C213.235 95.3201 214.794 93.7575 214.794 91.83C214.794 89.9024 213.235 88.3398 211.312 88.3398C209.389 88.3398 207.83 89.9024 207.83 91.83C207.83 93.7575 209.389 95.3201 211.312 95.3201Z" fill="#D5D46E"/>
<path d="M218.073 95.3201C219.996 95.3201 221.554 93.7575 221.554 91.83C221.554 89.9024 219.996 88.3398 218.073 88.3398C216.15 88.3398 214.591 89.9024 214.591 91.83C214.591 93.7575 216.15 95.3201 218.073 95.3201Z" fill="#D5D46E"/>
<path d="M28.7757 102.097C30.6986 102.097 32.2575 100.535 32.2575 98.607C32.2575 96.6795 30.6986 95.1169 28.7757 95.1169C26.8529 95.1169 25.294 96.6795 25.294 98.607C25.294 100.535 26.8529 102.097 28.7757 102.097Z" fill="#D5D46E"/>
<path d="M42.2969 102.097C44.2198 102.097 45.7786 100.535 45.7786 98.607C45.7786 96.6795 44.2198 95.1169 42.2969 95.1169C40.374 95.1169 38.8152 96.6795 38.8152 98.607C38.8152 100.535 40.374 102.097 42.2969 102.097Z" fill="#D5D46E"/>
<path d="M49.0575 102.097C50.9804 102.097 52.5392 100.535 52.5392 98.607C52.5392 96.6795 50.9804 95.1169 49.0575 95.1169C47.1346 95.1169 45.5758 96.6795 45.5758 98.607C45.5758 100.535 47.1346 102.097 49.0575 102.097Z" fill="#D5D46E"/>
<path d="M103.142 102.097C105.065 102.097 106.624 100.535 106.624 98.607C106.624 96.6795 105.065 95.1169 103.142 95.1169C101.219 95.1169 99.6606 96.6795 99.6606 98.607C99.6606 100.535 101.219 102.097 103.142 102.097Z" fill="#D5D46E"/>
<path d="M109.903 102.097C111.826 102.097 113.385 100.535 113.385 98.607C113.385 96.6795 111.826 95.1169 109.903 95.1169C107.98 95.1169 106.421 96.6795 106.421 98.607C106.421 100.535 107.98 102.097 109.903 102.097Z" fill="#D5D46E"/>
<path d="M130.185 102.097C132.108 102.097 133.666 100.535 133.666 98.607C133.666 96.6795 132.108 95.1169 130.185 95.1169C128.262 95.1169 126.703 96.6795 126.703 98.607C126.703 100.535 128.262 102.097 130.185 102.097Z" fill="#D5D46E"/>
<path d="M136.945 102.097C138.868 102.097 140.427 100.535 140.427 98.607C140.427 96.6795 138.868 95.1169 136.945 95.1169C135.022 95.1169 133.464 96.6795 133.464 98.607C133.464 100.535 135.022 102.097 136.945 102.097Z" fill="#D5D46E"/>
<path d="M150.467 102.097C152.39 102.097 153.948 100.535 153.948 98.607C153.948 96.6795 152.39 95.1169 150.467 95.1169C148.544 95.1169 146.985 96.6795 146.985 98.607C146.985 100.535 148.544 102.097 150.467 102.097Z" fill="#D5D46E"/>
<path d="M163.988 102.097C165.911 102.097 167.47 100.535 167.47 98.607C167.47 96.6795 165.911 95.1169 163.988 95.1169C162.065 95.1169 160.506 96.6795 160.506 98.607C160.506 100.535 162.065 102.097 163.988 102.097Z" fill="#D5D46E"/>
<path d="M170.748 102.097C172.671 102.097 174.23 100.535 174.23 98.607C174.23 96.6795 172.671 95.1169 170.748 95.1169C168.825 95.1169 167.267 96.6795 167.267 98.607C167.267 100.535 168.825 102.097 170.748 102.097Z" fill="#D5D46E"/>
<path d="M177.509 102.097C179.432 102.097 180.991 100.535 180.991 98.6071C180.991 96.6795 179.432 95.117 177.509 95.117C175.586 95.117 174.027 96.6795 174.027 98.6071C174.027 100.535 175.586 102.097 177.509 102.097Z" fill="#D5D46E"/>
<path d="M184.27 102.097C186.192 102.097 187.751 100.535 187.751 98.607C187.751 96.6795 186.192 95.1169 184.27 95.1169C182.347 95.1169 180.788 96.6795 180.788 98.607C180.788 100.535 182.347 102.097 184.27 102.097Z" fill="#D5D46E"/>
<path d="M191.03 102.097C192.953 102.097 194.512 100.535 194.512 98.607C194.512 96.6795 192.953 95.1169 191.03 95.1169C189.107 95.1169 187.548 96.6795 187.548 98.607C187.548 100.535 189.107 102.097 191.03 102.097Z" fill="#D5D46E"/>
<path d="M197.791 102.097C199.714 102.097 201.272 100.535 201.272 98.607C201.272 96.6795 199.714 95.1169 197.791 95.1169C195.868 95.1169 194.309 96.6795 194.309 98.607C194.309 100.535 195.868 102.097 197.791 102.097Z" fill="#D5D46E"/>
<path d="M218.073 102.097C219.996 102.097 221.554 100.535 221.554 98.607C221.554 96.6795 219.996 95.1169 218.073 95.1169C216.15 95.1169 214.591 96.6795 214.591 98.607C214.591 100.535 216.15 102.097 218.073 102.097Z" fill="#D5D46E"/>
<path d="M28.7757 108.874C30.6986 108.874 32.2575 107.312 32.2575 105.384C32.2575 103.456 30.6986 101.894 28.7757 101.894C26.8529 101.894 25.294 103.456 25.294 105.384C25.294 107.312 26.8529 108.874 28.7757 108.874Z" fill="#D5D46E"/>
<path d="M35.5363 108.874C37.4592 108.874 39.018 107.312 39.018 105.384C39.018 103.456 37.4592 101.894 35.5363 101.894C33.6134 101.894 32.0546 103.456 32.0546 105.384C32.0546 107.312 33.6134 108.874 35.5363 108.874Z" fill="#D5D46E"/>
<path d="M42.2969 108.874C44.2198 108.874 45.7786 107.312 45.7786 105.384C45.7786 103.456 44.2198 101.894 42.2969 101.894C40.374 101.894 38.8152 103.456 38.8152 105.384C38.8152 107.312 40.374 108.874 42.2969 108.874Z" fill="#D5D46E"/>
<path d="M49.0575 108.874C50.9804 108.874 52.5392 107.312 52.5392 105.384C52.5392 103.456 50.9804 101.894 49.0575 101.894C47.1346 101.894 45.5758 103.456 45.5758 105.384C45.5758 107.312 47.1346 108.874 49.0575 108.874Z" fill="#D5D46E"/>
<path d="M62.5786 108.874C64.5015 108.874 66.0603 107.312 66.0603 105.384C66.0603 103.456 64.5015 101.894 62.5786 101.894C60.6557 101.894 59.0969 103.456 59.0969 105.384C59.0969 107.312 60.6557 108.874 62.5786 108.874Z" fill="#D5D46E"/>
<path d="M69.3395 108.874C71.2623 108.874 72.8212 107.312 72.8212 105.384C72.8212 103.456 71.2623 101.894 69.3395 101.894C67.4166 101.894 65.8577 103.456 65.8577 105.384C65.8577 107.312 67.4166 108.874 69.3395 108.874Z" fill="#D5D46E"/>
<path d="M89.6212 108.874C91.5441 108.874 93.1029 107.312 93.1029 105.384C93.1029 103.456 91.5441 101.894 89.6212 101.894C87.6983 101.894 86.1395 103.456 86.1395 105.384C86.1395 107.312 87.6983 108.874 89.6212 108.874Z" fill="#D5D46E"/>
<path d="M163.988 108.874C165.911 108.874 167.47 107.312 167.47 105.384C167.47 103.456 165.911 101.894 163.988 101.894C162.065 101.894 160.506 103.456 160.506 105.384C160.506 107.312 162.065 108.874 163.988 108.874Z" fill="#D5D46E"/>
<path d="M170.748 108.874C172.671 108.874 174.23 107.312 174.23 105.384C174.23 103.456 172.671 101.894 170.748 101.894C168.825 101.894 167.267 103.456 167.267 105.384C167.267 107.312 168.825 108.874 170.748 108.874Z" fill="#D5D46E"/>
<path d="M177.509 108.874C179.432 108.874 180.991 107.312 180.991 105.384C180.991 103.457 179.432 101.894 177.509 101.894C175.586 101.894 174.027 103.457 174.027 105.384C174.027 107.312 175.586 108.874 177.509 108.874Z" fill="#D5D46E"/>
<path d="M184.27 108.874C186.192 108.874 187.751 107.312 187.751 105.384C187.751 103.456 186.192 101.894 184.27 101.894C182.347 101.894 180.788 103.456 180.788 105.384C180.788 107.312 182.347 108.874 184.27 108.874Z" fill="#D5D46E"/>
<path d="M191.03 108.874C192.953 108.874 194.512 107.312 194.512 105.384C194.512 103.456 192.953 101.894 191.03 101.894C189.107 101.894 187.548 103.456 187.548 105.384C187.548 107.312 189.107 108.874 191.03 108.874Z" fill="#D5D46E"/>
<path d="M42.2969 115.651C44.2198 115.651 45.7786 114.088 45.7786 112.161C45.7786 110.233 44.2198 108.671 42.2969 108.671C40.374 108.671 38.8152 110.233 38.8152 112.161C38.8152 114.088 40.374 115.651 42.2969 115.651Z" fill="#D5D46E"/>
<path d="M55.8181 115.651C57.741 115.651 59.2998 114.088 59.2998 112.161C59.2998 110.233 57.741 108.671 55.8181 108.671C53.8952 108.671 52.3364 110.233 52.3364 112.161C52.3364 114.088 53.8952 115.651 55.8181 115.651Z" fill="#D5D46E"/>
<path d="M82.8606 115.651C84.7835 115.651 86.3423 114.088 86.3423 112.161C86.3423 110.233 84.7835 108.671 82.8606 108.671C80.9377 108.671 79.3789 110.233 79.3789 112.161C79.3789 114.088 80.9377 115.651 82.8606 115.651Z" fill="#D5D46E"/>
<path d="M89.6212 115.651C91.5441 115.651 93.1029 114.088 93.1029 112.161C93.1029 110.233 91.5441 108.671 89.6212 108.671C87.6983 108.671 86.1395 110.233 86.1395 112.161C86.1395 114.088 87.6983 115.651 89.6212 115.651Z" fill="#D5D46E"/>
<path d="M170.748 115.651C172.671 115.651 174.23 114.088 174.23 112.161C174.23 110.233 172.671 108.671 170.748 108.671C168.825 108.671 167.267 110.233 167.267 112.161C167.267 114.088 168.825 115.651 170.748 115.651Z" fill="#D5D46E"/>
<path d="M177.509 115.651C179.432 115.651 180.991 114.088 180.991 112.161C180.991 110.233 179.432 108.671 177.509 108.671C175.586 108.671 174.027 110.233 174.027 112.161C174.027 114.088 175.586 115.651 177.509 115.651Z" fill="#D5D46E"/>
<path d="M191.03 115.651C192.953 115.651 194.512 114.088 194.512 112.161C194.512 110.233 192.953 108.671 191.03 108.671C189.107 108.671 187.548 110.233 187.548 112.161C187.548 114.088 189.107 115.651 191.03 115.651Z" fill="#D5D46E"/>
<path d="M197.791 115.651C199.714 115.651 201.272 114.088 201.272 112.161C201.272 110.233 199.714 108.671 197.791 108.671C195.868 108.671 194.309 110.233 194.309 112.161C194.309 114.088 195.868 115.651 197.791 115.651Z" fill="#D5D46E"/>
<path d="M211.312 115.651C213.235 115.651 214.794 114.088 214.794 112.161C214.794 110.233 213.235 108.671 211.312 108.671C209.389 108.671 207.83 110.233 207.83 112.161C207.83 114.088 209.389 115.651 211.312 115.651Z" fill="#D5D46E"/>
<path d="M35.5363 122.428C37.4592 122.428 39.018 120.865 39.018 118.938C39.018 117.01 37.4592 115.448 35.5363 115.448C33.6134 115.448 32.0546 117.01 32.0546 118.938C32.0546 120.865 33.6134 122.428 35.5363 122.428Z" fill="#D5D46E"/>
<path d="M49.0575 122.428C50.9804 122.428 52.5392 120.865 52.5392 118.938C52.5392 117.01 50.9804 115.448 49.0575 115.448C47.1346 115.448 45.5758 117.01 45.5758 118.938C45.5758 120.865 47.1346 122.428 49.0575 122.428Z" fill="#D5D46E"/>
<path d="M55.8181 122.428C57.741 122.428 59.2998 120.865 59.2998 118.938C59.2998 117.01 57.741 115.448 55.8181 115.448C53.8952 115.448 52.3364 117.01 52.3364 118.938C52.3364 120.865 53.8952 122.428 55.8181 122.428Z" fill="#D5D46E"/>
<path d="M62.5786 122.428C64.5015 122.428 66.0603 120.865 66.0603 118.938C66.0603 117.01 64.5015 115.448 62.5786 115.448C60.6557 115.448 59.0969 117.01 59.0969 118.938C59.0969 120.865 60.6557 122.428 62.5786 122.428Z" fill="#D5D46E"/>
<path d="M69.3395 122.428C71.2623 122.428 72.8212 120.865 72.8212 118.938C72.8212 117.01 71.2623 115.448 69.3395 115.448C67.4166 115.448 65.8577 117.01 65.8577 118.938C65.8577 120.865 67.4166 122.428 69.3395 122.428Z" fill="#D5D46E"/>
<path d="M163.988 122.428C165.911 122.428 167.47 120.865 167.47 118.938C167.47 117.01 165.911 115.448 163.988 115.448C162.065 115.448 160.506 117.01 160.506 118.938C160.506 120.865 162.065 122.428 163.988 122.428Z" fill="#D5D46E"/>
<path d="M170.748 122.428C172.671 122.428 174.23 120.865 174.23 118.938C174.23 117.01 172.671 115.448 170.748 115.448C168.825 115.448 167.267 117.01 167.267 118.938C167.267 120.865 168.825 122.428 170.748 122.428Z" fill="#D5D46E"/>
<path d="M184.27 122.428C186.192 122.428 187.751 120.865 187.751 118.938C187.751 117.01 186.192 115.448 184.27 115.448C182.347 115.448 180.788 117.01 180.788 118.938C180.788 120.865 182.347 122.428 184.27 122.428Z" fill="#D5D46E"/>
<path d="M204.551 122.428C206.474 122.428 208.033 120.865 208.033 118.938C208.033 117.01 206.474 115.448 204.551 115.448C202.628 115.448 201.07 117.01 201.07 118.938C201.07 120.865 202.628 122.428 204.551 122.428Z" fill="#D5D46E"/>
<path d="M211.312 122.428C213.235 122.428 214.794 120.865 214.794 118.938C214.794 117.01 213.235 115.448 211.312 115.448C209.389 115.448 207.83 117.01 207.83 118.938C207.83 120.865 209.389 122.428 211.312 122.428Z" fill="#D5D46E"/>
<path d="M218.073 122.428C219.996 122.428 221.554 120.865 221.554 118.938C221.554 117.01 219.996 115.448 218.073 115.448C216.15 115.448 214.591 117.01 214.591 118.938C214.591 120.865 216.15 122.428 218.073 122.428Z" fill="#D5D46E"/>
<path d="M35.5363 129.205C37.4592 129.205 39.018 127.642 39.018 125.715C39.018 123.787 37.4592 122.225 35.5363 122.225C33.6134 122.225 32.0546 123.787 32.0546 125.715C32.0546 127.642 33.6134 129.205 35.5363 129.205Z" fill="#D5D46E"/>
<path d="M42.2969 129.205C44.2198 129.205 45.7786 127.642 45.7786 125.715C45.7786 123.787 44.2198 122.225 42.2969 122.225C40.374 122.225 38.8152 123.787 38.8152 125.715C38.8152 127.642 40.374 129.205 42.2969 129.205Z" fill="#D5D46E"/>
<path d="M49.0575 129.205C50.9804 129.205 52.5392 127.642 52.5392 125.715C52.5392 123.787 50.9804 122.225 49.0575 122.225C47.1346 122.225 45.5758 123.787 45.5758 125.715C45.5758 127.642 47.1346 129.205 49.0575 129.205Z" fill="#D5D46E"/>
<path d="M55.8181 129.205C57.741 129.205 59.2998 127.642 59.2998 125.715C59.2998 123.787 57.741 122.225 55.8181 122.225C53.8952 122.225 52.3364 123.787 52.3364 125.715C52.3364 127.642 53.8952 129.205 55.8181 129.205Z" fill="#D5D46E"/>
<path d="M62.5786 129.205C64.5015 129.205 66.0603 127.642 66.0603 125.715C66.0603 123.787 64.5015 122.225 62.5786 122.225C60.6557 122.225 59.0969 123.787 59.0969 125.715C59.0969 127.642 60.6557 129.205 62.5786 129.205Z" fill="#D5D46E"/>
<path d="M76.1 129.205C78.0229 129.205 79.5817 127.642 79.5817 125.715C79.5817 123.787 78.0229 122.225 76.1 122.225C74.1771 122.225 72.6183 123.787 72.6183 125.715C72.6183 127.642 74.1771 129.205 76.1 129.205Z" fill="#D5D46E"/>
<path d="M157.227 129.205C159.15 129.205 160.709 127.642 160.709 125.715C160.709 123.787 159.15 122.225 157.227 122.225C155.304 122.225 153.745 123.787 153.745 125.715C153.745 127.642 155.304 129.205 157.227 129.205Z" fill="#D5D46E"/>
<path d="M163.988 129.205C165.911 129.205 167.47 127.642 167.47 125.715C167.47 123.787 165.911 122.225 163.988 122.225C162.065 122.225 160.506 123.787 160.506 125.715C160.506 127.642 162.065 129.205 163.988 129.205Z" fill="#D5D46E"/>
<path d="M170.748 129.205C172.671 129.205 174.23 127.642 174.23 125.715C174.23 123.787 172.671 122.225 170.748 122.225C168.825 122.225 167.267 123.787 167.267 125.715C167.267 127.642 168.825 129.205 170.748 129.205Z" fill="#D5D46E"/>
<path d="M177.509 129.205C179.432 129.205 180.991 127.642 180.991 125.715C180.991 123.787 179.432 122.225 177.509 122.225C175.586 122.225 174.027 123.787 174.027 125.715C174.027 127.642 175.586 129.205 177.509 129.205Z" fill="#D5D46E"/>
<path d="M191.03 129.205C192.953 129.205 194.512 127.642 194.512 125.715C194.512 123.787 192.953 122.225 191.03 122.225C189.107 122.225 187.548 123.787 187.548 125.715C187.548 127.642 189.107 129.205 191.03 129.205Z" fill="#D5D46E"/>
<path d="M197.791 129.205C199.714 129.205 201.272 127.642 201.272 125.715C201.272 123.787 199.714 122.225 197.791 122.225C195.868 122.225 194.309 123.787 194.309 125.715C194.309 127.642 195.868 129.205 197.791 129.205Z" fill="#D5D46E"/>
<path d="M211.312 129.205C213.235 129.205 214.794 127.642 214.794 125.715C214.794 123.787 213.235 122.225 211.312 122.225C209.389 122.225 207.83 123.787 207.83 125.715C207.83 127.642 209.389 129.205 211.312 129.205Z" fill="#D5D46E"/>
<path d="M218.073 129.205C219.996 129.205 221.554 127.642 221.554 125.715C221.554 123.787 219.996 122.225 218.073 122.225C216.15 122.225 214.591 123.787 214.591 125.715C214.591 127.642 216.15 129.205 218.073 129.205Z" fill="#D5D46E"/>
<path d="M28.7757 135.982C30.6986 135.982 32.2575 134.419 32.2575 132.492C32.2575 130.564 30.6986 129.002 28.7757 129.002C26.8529 129.002 25.294 130.564 25.294 132.492C25.294 134.419 26.8529 135.982 28.7757 135.982Z" fill="#D5D46E"/>
<path d="M69.3395 135.982C71.2623 135.982 72.8212 134.419 72.8212 132.492C72.8212 130.564 71.2623 129.002 69.3395 129.002C67.4166 129.002 65.8577 130.564 65.8577 132.492C65.8577 134.419 67.4166 135.982 69.3395 135.982Z" fill="#D5D46E"/>
<path d="M76.1 135.982C78.0229 135.982 79.5817 134.419 79.5817 132.492C79.5817 130.564 78.0229 129.002 76.1 129.002C74.1771 129.002 72.6183 130.564 72.6183 132.492C72.6183 134.419 74.1771 135.982 76.1 135.982Z" fill="#D5D46E"/>
<path d="M163.988 135.982C165.911 135.982 167.47 134.419 167.47 132.492C167.47 130.564 165.911 129.002 163.988 129.002C162.065 129.002 160.506 130.564 160.506 132.492C160.506 134.419 162.065 135.982 163.988 135.982Z" fill="#D5D46E"/>
<path d="M170.748 135.982C172.671 135.982 174.23 134.419 174.23 132.492C174.23 130.564 172.671 129.002 170.748 129.002C168.825 129.002 167.267 130.564 167.267 132.492C167.267 134.419 168.825 135.982 170.748 135.982Z" fill="#D5D46E"/>
<path d="M177.509 135.982C179.432 135.982 180.991 134.419 180.991 132.492C180.991 130.564 179.432 129.002 177.509 129.002C175.586 129.002 174.027 130.564 174.027 132.492C174.027 134.419 175.586 135.982 177.509 135.982Z" fill="#D5D46E"/>
<path d="M184.27 135.982C186.192 135.982 187.751 134.419 187.751 132.492C187.751 130.564 186.192 129.002 184.27 129.002C182.347 129.002 180.788 130.564 180.788 132.492C180.788 134.419 182.347 135.982 184.27 135.982Z" fill="#D5D46E"/>
<path d="M35.5363 142.759C37.4592 142.759 39.018 141.196 39.018 139.268C39.018 137.341 37.4592 135.778 35.5363 135.778C33.6134 135.778 32.0546 137.341 32.0546 139.268C32.0546 141.196 33.6134 142.759 35.5363 142.759Z" fill="#D5D46E"/>
<path d="M42.2969 142.759C44.2198 142.759 45.7786 141.196 45.7786 139.268C45.7786 137.341 44.2198 135.778 42.2969 135.778C40.374 135.778 38.8152 137.341 38.8152 139.268C38.8152 141.196 40.374 142.759 42.2969 142.759Z" fill="#D5D46E"/>
<path d="M55.8181 142.759C57.741 142.759 59.2998 141.196 59.2998 139.268C59.2998 137.341 57.741 135.778 55.8181 135.778C53.8952 135.778 52.3364 137.341 52.3364 139.268C52.3364 141.196 53.8952 142.759 55.8181 142.759Z" fill="#D5D46E"/>
<path d="M82.8606 142.759C84.7835 142.759 86.3423 141.196 86.3423 139.268C86.3423 137.341 84.7835 135.778 82.8606 135.778C80.9377 135.778 79.3789 137.341 79.3789 139.268C79.3789 141.196 80.9377 142.759 82.8606 142.759Z" fill="#D5D46E"/>
<path d="M177.509 142.759C179.432 142.759 180.991 141.196 180.991 139.268C180.991 137.341 179.432 135.778 177.509 135.778C175.586 135.778 174.027 137.341 174.027 139.268C174.027 141.196 175.586 142.759 177.509 142.759Z" fill="#D5D46E"/>
<path d="M191.03 142.759C192.953 142.759 194.512 141.196 194.512 139.268C194.512 137.341 192.953 135.778 191.03 135.778C189.107 135.778 187.548 137.341 187.548 139.268C187.548 141.196 189.107 142.759 191.03 142.759Z" fill="#D5D46E"/>
<path d="M197.791 142.759C199.714 142.759 201.272 141.196 201.272 139.268C201.272 137.341 199.714 135.778 197.791 135.778C195.868 135.778 194.309 137.341 194.309 139.268C194.309 141.196 195.868 142.759 197.791 142.759Z" fill="#D5D46E"/>
<path d="M218.073 142.759C219.996 142.759 221.554 141.196 221.554 139.268C221.554 137.341 219.996 135.778 218.073 135.778C216.15 135.778 214.591 137.341 214.591 139.268C214.591 141.196 216.15 142.759 218.073 142.759Z" fill="#D5D46E"/>
<path d="M49.0575 149.536C50.9804 149.536 52.5392 147.973 52.5392 146.046C52.5392 144.118 50.9804 142.555 49.0575 142.555C47.1346 142.555 45.5758 144.118 45.5758 146.046C45.5758 147.973 47.1346 149.536 49.0575 149.536Z" fill="#D5D46E"/>
<path d="M62.5786 149.536C64.5015 149.536 66.0603 147.973 66.0603 146.046C66.0603 144.118 64.5015 142.555 62.5786 142.555C60.6557 142.555 59.0969 144.118 59.0969 146.046C59.0969 147.973 60.6557 149.536 62.5786 149.536Z" fill="#D5D46E"/>
<path d="M69.3395 149.536C71.2623 149.536 72.8212 147.973 72.8212 146.046C72.8212 144.118 71.2623 142.555 69.3395 142.555C67.4166 142.555 65.8577 144.118 65.8577 146.046C65.8577 147.973 67.4166 149.536 69.3395 149.536Z" fill="#D5D46E"/>
<path d="M184.27 149.536C186.192 149.536 187.751 147.973 187.751 146.046C187.751 144.118 186.192 142.555 184.27 142.555C182.347 142.555 180.788 144.118 180.788 146.046C180.788 147.973 182.347 149.536 184.27 149.536Z" fill="#D5D46E"/>
<path d="M197.791 149.536C199.714 149.536 201.272 147.973 201.272 146.046C201.272 144.118 199.714 142.555 197.791 142.555C195.868 142.555 194.309 144.118 194.309 146.046C194.309 147.973 195.868 149.536 197.791 149.536Z" fill="#D5D46E"/>
<path d="M204.551 149.536C206.474 149.536 208.033 147.973 208.033 146.046C208.033 144.118 206.474 142.555 204.551 142.555C202.628 142.555 201.07 144.118 201.07 146.046C201.07 147.973 202.628 149.536 204.551 149.536Z" fill="#D5D46E"/>
<path d="M218.073 149.536C219.996 149.536 221.554 147.973 221.554 146.046C221.554 144.118 219.996 142.555 218.073 142.555C216.15 142.555 214.591 144.118 214.591 146.046C214.591 147.973 216.15 149.536 218.073 149.536Z" fill="#D5D46E"/>
<path d="M28.7757 156.312C30.6986 156.312 32.2575 154.75 32.2575 152.822C32.2575 150.895 30.6986 149.332 28.7757 149.332C26.8529 149.332 25.294 150.895 25.294 152.822C25.294 154.75 26.8529 156.312 28.7757 156.312Z" fill="#D5D46E"/>
<path d="M35.5363 156.312C37.4592 156.312 39.018 154.75 39.018 152.822C39.018 150.895 37.4592 149.332 35.5363 149.332C33.6134 149.332 32.0546 150.895 32.0546 152.822C32.0546 154.75 33.6134 156.312 35.5363 156.312Z" fill="#D5D46E"/>
<path d="M55.8181 156.312C57.741 156.312 59.2998 154.75 59.2998 152.822C59.2998 150.895 57.741 149.332 55.8181 149.332C53.8952 149.332 52.3364 150.895 52.3364 152.822C52.3364 154.75 53.8952 156.312 55.8181 156.312Z" fill="#D5D46E"/>
<path d="M62.5786 156.312C64.5015 156.312 66.0603 154.75 66.0603 152.822C66.0603 150.895 64.5015 149.332 62.5786 149.332C60.6557 149.332 59.0969 150.895 59.0969 152.822C59.0969 154.75 60.6557 156.312 62.5786 156.312Z" fill="#D5D46E"/>
<path d="M76.1 156.312C78.0229 156.312 79.5817 154.75 79.5817 152.822C79.5817 150.895 78.0229 149.332 76.1 149.332C74.1771 149.332 72.6183 150.895 72.6183 152.822C72.6183 154.75 74.1771 156.312 76.1 156.312Z" fill="#D5D46E"/>
<path d="M82.8606 156.312C84.7835 156.312 86.3423 154.75 86.3423 152.822C86.3423 150.895 84.7835 149.332 82.8606 149.332C80.9377 149.332 79.3789 150.895 79.3789 152.822C79.3789 154.75 80.9377 156.312 82.8606 156.312Z" fill="#D5D46E"/>
<path d="M163.988 156.312C165.911 156.312 167.47 154.75 167.47 152.822C167.47 150.895 165.911 149.332 163.988 149.332C162.065 149.332 160.506 150.895 160.506 152.822C160.506 154.75 162.065 156.312 163.988 156.312Z" fill="#D5D46E"/>
<path d="M191.03 156.312C192.953 156.312 194.512 154.75 194.512 152.822C194.512 150.895 192.953 149.332 191.03 149.332C189.107 149.332 187.548 150.895 187.548 152.822C187.548 154.75 189.107 156.312 191.03 156.312Z" fill="#D5D46E"/>
<path d="M197.791 156.312C199.714 156.312 201.272 154.75 201.272 152.822C201.272 150.895 199.714 149.332 197.791 149.332C195.868 149.332 194.309 150.895 194.309 152.822C194.309 154.75 195.868 156.312 197.791 156.312Z" fill="#D5D46E"/>
<path d="M211.312 156.312C213.235 156.312 214.794 154.75 214.794 152.822C214.794 150.895 213.235 149.332 211.312 149.332C209.389 149.332 207.83 150.895 207.83 152.822C207.83 154.75 209.389 156.312 211.312 156.312Z" fill="#D5D46E"/>
<path d="M218.073 156.312C219.996 156.312 221.554 154.75 221.554 152.822C221.554 150.895 219.996 149.332 218.073 149.332C216.15 149.332 214.591 150.895 214.591 152.822C214.591 154.75 216.15 156.312 218.073 156.312Z" fill="#D5D46E"/>
<path d="M28.7757 163.089C30.6986 163.089 32.2575 161.527 32.2575 159.599C32.2575 157.672 30.6986 156.109 28.7757 156.109C26.8529 156.109 25.294 157.672 25.294 159.599C25.294 161.527 26.8529 163.089 28.7757 163.089Z" fill="#D5D46E"/>
<path d="M55.8181 163.089C57.741 163.089 59.2998 161.527 59.2998 159.599C59.2998 157.672 57.741 156.109 55.8181 156.109C53.8952 156.109 52.3364 157.672 52.3364 159.599C52.3364 161.527 53.8952 163.089 55.8181 163.089Z" fill="#D5D46E"/>
<path d="M62.5786 163.089C64.5015 163.089 66.0603 161.527 66.0603 159.599C66.0603 157.672 64.5015 156.109 62.5786 156.109C60.6557 156.109 59.0969 157.672 59.0969 159.599C59.0969 161.527 60.6557 163.089 62.5786 163.089Z" fill="#D5D46E"/>
<path d="M69.3395 163.089C71.2623 163.089 72.8212 161.527 72.8212 159.599C72.8212 157.672 71.2623 156.109 69.3395 156.109C67.4166 156.109 65.8577 157.672 65.8577 159.599C65.8577 161.527 67.4166 163.089 69.3395 163.089Z" fill="#D5D46E"/>
<path d="M82.8606 163.089C84.7835 163.089 86.3423 161.527 86.3423 159.599C86.3423 157.672 84.7835 156.109 82.8606 156.109C80.9377 156.109 79.3789 157.672 79.3789 159.599C79.3789 161.527 80.9377 163.089 82.8606 163.089Z" fill="#D5D46E"/>
<path d="M163.988 163.089C165.911 163.089 167.47 161.527 167.47 159.599C167.47 157.672 165.911 156.109 163.988 156.109C162.065 156.109 160.506 157.672 160.506 159.599C160.506 161.527 162.065 163.089 163.988 163.089Z" fill="#D5D46E"/>
<path d="M177.509 163.089C179.432 163.089 180.991 161.527 180.991 159.599C180.991 157.672 179.432 156.109 177.509 156.109C175.586 156.109 174.027 157.672 174.027 159.599C174.027 161.527 175.586 163.089 177.509 163.089Z" fill="#D5D46E"/>
<path d="M184.27 163.089C186.192 163.089 187.751 161.527 187.751 159.599C187.751 157.672 186.192 156.109 184.27 156.109C182.347 156.109 180.788 157.672 180.788 159.599C180.788 161.527 182.347 163.089 184.27 163.089Z" fill="#D5D46E"/>
<path d="M197.791 163.089C199.714 163.089 201.272 161.527 201.272 159.599C201.272 157.672 199.714 156.109 197.791 156.109C195.868 156.109 194.309 157.672 194.309 159.599C194.309 161.527 195.868 163.089 197.791 163.089Z" fill="#D5D46E"/>
<path d="M28.7758 169.866C30.6987 169.866 32.2575 168.304 32.2575 166.376C32.2575 164.449 30.6987 162.886 28.7758 162.886C26.8529 162.886 25.2941 164.449 25.2941 166.376C25.2941 168.304 26.8529 169.866 28.7758 169.866Z" fill="#D5D46E"/>
<path d="M49.0575 169.866C50.9804 169.866 52.5392 168.304 52.5392 166.376C52.5392 164.449 50.9804 162.886 49.0575 162.886C47.1346 162.886 45.5758 164.449 45.5758 166.376C45.5758 168.304 47.1346 169.866 49.0575 169.866Z" fill="#D5D46E"/>
<path d="M55.8181 169.866C57.741 169.866 59.2998 168.304 59.2998 166.376C59.2998 164.449 57.741 162.886 55.8181 162.886C53.8952 162.886 52.3364 164.449 52.3364 166.376C52.3364 168.304 53.8952 169.866 55.8181 169.866Z" fill="#D5D46E"/>
<path d="M62.5786 169.866C64.5015 169.866 66.0603 168.304 66.0603 166.376C66.0603 164.449 64.5015 162.886 62.5786 162.886C60.6557 162.886 59.0969 164.449 59.0969 166.376C59.0969 168.304 60.6557 169.866 62.5786 169.866Z" fill="#D5D46E"/>
<path d="M89.6211 169.866C91.544 169.866 93.1028 168.304 93.1028 166.376C93.1028 164.449 91.544 162.886 89.6211 162.886C87.6982 162.886 86.1394 164.449 86.1394 166.376C86.1394 168.304 87.6982 169.866 89.6211 169.866Z" fill="#D5D46E"/>
<path d="M136.945 169.866C138.868 169.866 140.427 168.304 140.427 166.376C140.427 164.449 138.868 162.886 136.945 162.886C135.022 162.886 133.464 164.449 133.464 166.376C133.464 168.304 135.022 169.866 136.945 169.866Z" fill="#D5D46E"/>
<path d="M143.706 169.866C145.629 169.866 147.188 168.304 147.188 166.376C147.188 164.449 145.629 162.886 143.706 162.886C141.783 162.886 140.224 164.449 140.224 166.376C140.224 168.304 141.783 169.866 143.706 169.866Z" fill="#D5D46E"/>
<path d="M150.467 169.866C152.39 169.866 153.948 168.304 153.948 166.376C153.948 164.449 152.39 162.886 150.467 162.886C148.544 162.886 146.985 164.449 146.985 166.376C146.985 168.304 148.544 169.866 150.467 169.866Z" fill="#D5D46E"/>
<path d="M157.227 169.866C159.15 169.866 160.709 168.304 160.709 166.376C160.709 164.449 159.15 162.886 157.227 162.886C155.304 162.886 153.745 164.449 153.745 166.376C153.745 168.304 155.304 169.866 157.227 169.866Z" fill="#D5D46E"/>
<path d="M163.988 169.866C165.911 169.866 167.469 168.304 167.469 166.376C167.469 164.449 165.911 162.886 163.988 162.886C162.065 162.886 160.506 164.449 160.506 166.376C160.506 168.304 162.065 169.866 163.988 169.866Z" fill="#D5D46E"/>
<path d="M177.509 169.866C179.432 169.866 180.991 168.304 180.991 166.376C180.991 164.449 179.432 162.886 177.509 162.886C175.586 162.886 174.027 164.449 174.027 166.376C174.027 168.304 175.586 169.866 177.509 169.866Z" fill="#D5D46E"/>
<path d="M184.27 169.866C186.192 169.866 187.751 168.304 187.751 166.376C187.751 164.449 186.192 162.886 184.27 162.886C182.347 162.886 180.788 164.449 180.788 166.376C180.788 168.304 182.347 169.866 184.27 169.866Z" fill="#D5D46E"/>
<path d="M197.791 169.866C199.714 169.866 201.272 168.304 201.272 166.376C201.272 164.449 199.714 162.886 197.791 162.886C195.868 162.886 194.309 164.449 194.309 166.376C194.309 168.304 195.868 169.866 197.791 169.866Z" fill="#D5D46E"/>
<path d="M218.073 169.866C219.996 169.866 221.554 168.304 221.554 166.376C221.554 164.449 219.996 162.886 218.073 162.886C216.15 162.886 214.591 164.449 214.591 166.376C214.591 168.304 216.15 169.866 218.073 169.866Z" fill="#D5D46E"/>
<path d="M28.7757 176.643C30.6986 176.643 32.2575 175.081 32.2575 173.153C32.2575 171.226 30.6986 169.663 28.7757 169.663C26.8529 169.663 25.294 171.226 25.294 173.153C25.294 175.081 26.8529 176.643 28.7757 176.643Z" fill="#D5D46E"/>
<path d="M49.0575 176.643C50.9804 176.643 52.5392 175.081 52.5392 173.153C52.5392 171.226 50.9804 169.663 49.0575 169.663C47.1346 169.663 45.5758 171.226 45.5758 173.153C45.5758 175.081 47.1346 176.643 49.0575 176.643Z" fill="#D5D46E"/>
<path d="M55.8181 176.643C57.741 176.643 59.2998 175.081 59.2998 173.153C59.2998 171.226 57.741 169.663 55.8181 169.663C53.8952 169.663 52.3364 171.226 52.3364 173.153C52.3364 175.081 53.8952 176.643 55.8181 176.643Z" fill="#D5D46E"/>
<path d="M62.5786 176.643C64.5015 176.643 66.0603 175.081 66.0603 173.153C66.0603 171.226 64.5015 169.663 62.5786 169.663C60.6557 169.663 59.0969 171.226 59.0969 173.153C59.0969 175.081 60.6557 176.643 62.5786 176.643Z" fill="#D5D46E"/>
<path d="M69.3395 176.643C71.2623 176.643 72.8212 175.081 72.8212 173.153C72.8212 171.226 71.2623 169.663 69.3395 169.663C67.4166 169.663 65.8577 171.226 65.8577 173.153C65.8577 175.081 67.4166 176.643 69.3395 176.643Z" fill="#D5D46E"/>
<path d="M96.3818 176.643C98.3047 176.643 99.8635 175.081 99.8635 173.153C99.8635 171.226 98.3047 169.663 96.3818 169.663C94.4589 169.663 92.9001 171.226 92.9001 173.153C92.9001 175.081 94.4589 176.643 96.3818 176.643Z" fill="#D5D46E"/>
<path d="M109.903 176.643C111.826 176.643 113.385 175.081 113.385 173.153C113.385 171.226 111.826 169.663 109.903 169.663C107.98 169.663 106.421 171.226 106.421 173.153C106.421 175.081 107.98 176.643 109.903 176.643Z" fill="#D5D46E"/>
<path d="M116.664 176.643C118.586 176.643 120.145 175.081 120.145 173.153C120.145 171.226 118.586 169.663 116.664 169.663C114.741 169.663 113.182 171.226 113.182 173.153C113.182 175.081 114.741 176.643 116.664 176.643Z" fill="#D5D46E"/>
<path d="M130.185 176.643C132.108 176.643 133.666 175.081 133.666 173.153C133.666 171.226 132.108 169.663 130.185 169.663C128.262 169.663 126.703 171.226 126.703 173.153C126.703 175.081 128.262 176.643 130.185 176.643Z" fill="#D5D46E"/>
<path d="M143.706 176.643C145.629 176.643 147.188 175.081 147.188 173.153C147.188 171.226 145.629 169.663 143.706 169.663C141.783 169.663 140.224 171.226 140.224 173.153C140.224 175.081 141.783 176.643 143.706 176.643Z" fill="#D5D46E"/>
<path d="M157.227 176.643C159.15 176.643 160.709 175.081 160.709 173.153C160.709 171.226 159.15 169.663 157.227 169.663C155.304 169.663 153.745 171.226 153.745 173.153C153.745 175.081 155.304 176.643 157.227 176.643Z" fill="#D5D46E"/>
<path d="M163.988 176.643C165.911 176.643 167.47 175.081 167.47 173.153C167.47 171.226 165.911 169.663 163.988 169.663C162.065 169.663 160.506 171.226 160.506 173.153C160.506 175.081 162.065 176.643 163.988 176.643Z" fill="#D5D46E"/>
<path d="M170.748 176.643C172.671 176.643 174.23 175.081 174.23 173.153C174.23 171.226 172.671 169.663 170.748 169.663C168.825 169.663 167.267 171.226 167.267 173.153C167.267 175.081 168.825 176.643 170.748 176.643Z" fill="#D5D46E"/>
<path d="M177.509 176.643C179.432 176.643 180.991 175.081 180.991 173.153C180.991 171.226 179.432 169.663 177.509 169.663C175.586 169.663 174.027 171.226 174.027 173.153C174.027 175.081 175.586 176.643 177.509 176.643Z" fill="#D5D46E"/>
<path d="M184.27 176.643C186.192 176.643 187.751 175.081 187.751 173.153C187.751 171.226 186.192 169.663 184.27 169.663C182.347 169.663 180.788 171.226 180.788 173.153C180.788 175.081 182.347 176.643 184.27 176.643Z" fill="#D5D46E"/>
<path d="M191.03 176.643C192.953 176.643 194.512 175.081 194.512 173.153C194.512 171.226 192.953 169.663 191.03 169.663C189.107 169.663 187.548 171.226 187.548 173.153C187.548 175.081 189.107 176.643 191.03 176.643Z" fill="#D5D46E"/>
<path d="M197.791 176.643C199.714 176.643 201.272 175.081 201.272 173.153C201.272 171.226 199.714 169.663 197.791 169.663C195.868 169.663 194.309 171.226 194.309 173.153C194.309 175.081 195.868 176.643 197.791 176.643Z" fill="#D5D46E"/>
<path d="M204.551 176.643C206.474 176.643 208.033 175.081 208.033 173.153C208.033 171.226 206.474 169.663 204.551 169.663C202.628 169.663 201.07 171.226 201.07 173.153C201.07 175.081 202.628 176.643 204.551 176.643Z" fill="#D5D46E"/>
<path d="M82.8606 183.42C84.7835 183.42 86.3423 181.858 86.3423 179.93C86.3423 178.003 84.7835 176.44 82.8606 176.44C80.9377 176.44 79.3789 178.003 79.3789 179.93C79.3789 181.858 80.9377 183.42 82.8606 183.42Z" fill="#D5D46E"/>
<path d="M89.6212 183.42C91.5441 183.42 93.1029 181.858 93.1029 179.93C93.1029 178.003 91.5441 176.44 89.6212 176.44C87.6983 176.44 86.1395 178.003 86.1395 179.93C86.1395 181.858 87.6983 183.42 89.6212 183.42Z" fill="#D5D46E"/>
<path d="M103.142 183.42C105.065 183.42 106.624 181.858 106.624 179.93C106.624 178.003 105.065 176.44 103.142 176.44C101.219 176.44 99.6606 178.003 99.6606 179.93C99.6606 181.858 101.219 183.42 103.142 183.42Z" fill="#D5D46E"/>
<path d="M116.664 183.42C118.586 183.42 120.145 181.858 120.145 179.93C120.145 178.003 118.586 176.44 116.664 176.44C114.741 176.44 113.182 178.003 113.182 179.93C113.182 181.858 114.741 183.42 116.664 183.42Z" fill="#D5D46E"/>
<path d="M150.467 183.42C152.39 183.42 153.948 181.858 153.948 179.93C153.948 178.003 152.39 176.44 150.467 176.44C148.544 176.44 146.985 178.003 146.985 179.93C146.985 181.858 148.544 183.42 150.467 183.42Z" fill="#D5D46E"/>
<path d="M157.227 183.42C159.15 183.42 160.709 181.858 160.709 179.93C160.709 178.003 159.15 176.44 157.227 176.44C155.304 176.44 153.745 178.003 153.745 179.93C153.745 181.858 155.304 183.42 157.227 183.42Z" fill="#D5D46E"/>
<path d="M163.988 183.42C165.911 183.42 167.47 181.858 167.47 179.93C167.47 178.003 165.911 176.44 163.988 176.44C162.065 176.44 160.506 178.003 160.506 179.93C160.506 181.858 162.065 183.42 163.988 183.42Z" fill="#D5D46E"/>
<path d="M191.03 183.42C192.953 183.42 194.512 181.858 194.512 179.93C194.512 178.003 192.953 176.44 191.03 176.44C189.107 176.44 187.548 178.003 187.548 179.93C187.548 181.858 189.107 183.42 191.03 183.42Z" fill="#D5D46E"/>
<path d="M197.791 183.42C199.714 183.42 201.272 181.858 201.272 179.93C201.272 178.003 199.714 176.44 197.791 176.44C195.868 176.44 194.309 178.003 194.309 179.93C194.309 181.858 195.868 183.42 197.791 183.42Z" fill="#D5D46E"/>
<path d="M211.312 183.42C213.235 183.42 214.794 181.858 214.794 179.93C214.794 178.003 213.235 176.44 211.312 176.44C209.389 176.44 207.83 178.003 207.83 179.93C207.83 181.858 209.389 183.42 211.312 183.42Z" fill="#D5D46E"/>
<path d="M218.073 183.42C219.996 183.42 221.554 181.858 221.554 179.93C221.554 178.003 219.996 176.44 218.073 176.44C216.15 176.44 214.591 178.003 214.591 179.93C214.591 181.858 216.15 183.42 218.073 183.42Z" fill="#D5D46E"/>
<path d="M109.903 190.197C111.826 190.197 113.385 188.635 113.385 186.707C113.385 184.779 111.826 183.217 109.903 183.217C107.98 183.217 106.421 184.779 106.421 186.707C106.421 188.635 107.98 190.197 109.903 190.197Z" fill="#D5D46E"/>
<path d="M123.424 190.197C125.347 190.197 126.906 188.635 126.906 186.707C126.906 184.779 125.347 183.217 123.424 183.217C121.501 183.217 119.942 184.779 119.942 186.707C119.942 188.635 121.501 190.197 123.424 190.197Z" fill="#D5D46E"/>
<path d="M130.185 190.197C132.108 190.197 133.666 188.635 133.666 186.707C133.666 184.779 132.108 183.217 130.185 183.217C128.262 183.217 126.703 184.779 126.703 186.707C126.703 188.635 128.262 190.197 130.185 190.197Z" fill="#D5D46E"/>
<path d="M143.706 190.197C145.629 190.197 147.188 188.635 147.188 186.707C147.188 184.779 145.629 183.217 143.706 183.217C141.783 183.217 140.224 184.779 140.224 186.707C140.224 188.635 141.783 190.197 143.706 190.197Z" fill="#D5D46E"/>
<path d="M150.467 190.197C152.39 190.197 153.948 188.635 153.948 186.707C153.948 184.779 152.39 183.217 150.467 183.217C148.544 183.217 146.985 184.779 146.985 186.707C146.985 188.635 148.544 190.197 150.467 190.197Z" fill="#D5D46E"/>
<path d="M157.227 190.197C159.15 190.197 160.709 188.635 160.709 186.707C160.709 184.779 159.15 183.217 157.227 183.217C155.304 183.217 153.745 184.779 153.745 186.707C153.745 188.635 155.304 190.197 157.227 190.197Z" fill="#D5D46E"/>
<path d="M163.988 190.197C165.911 190.197 167.47 188.635 167.47 186.707C167.47 184.779 165.911 183.217 163.988 183.217C162.065 183.217 160.506 184.779 160.506 186.707C160.506 188.635 162.065 190.197 163.988 190.197Z" fill="#D5D46E"/>
<path d="M177.509 190.197C179.432 190.197 180.991 188.634 180.991 186.707C180.991 184.779 179.432 183.217 177.509 183.217C175.586 183.217 174.027 184.779 174.027 186.707C174.027 188.634 175.586 190.197 177.509 190.197Z" fill="#D5D46E"/>
<path d="M191.03 190.197C192.953 190.197 194.512 188.635 194.512 186.707C194.512 184.779 192.953 183.217 191.03 183.217C189.107 183.217 187.548 184.779 187.548 186.707C187.548 188.635 189.107 190.197 191.03 190.197Z" fill="#D5D46E"/>
<path d="M96.3818 196.974C98.3047 196.974 99.8635 195.412 99.8635 193.484C99.8635 191.557 98.3047 189.994 96.3818 189.994C94.4589 189.994 92.9001 191.557 92.9001 193.484C92.9001 195.412 94.4589 196.974 96.3818 196.974Z" fill="#D5D46E"/>
<path d="M103.142 196.974C105.065 196.974 106.624 195.412 106.624 193.484C106.624 191.557 105.065 189.994 103.142 189.994C101.219 189.994 99.6606 191.557 99.6606 193.484C99.6606 195.412 101.219 196.974 103.142 196.974Z" fill="#D5D46E"/>
<path d="M116.664 196.974C118.586 196.974 120.145 195.412 120.145 193.484C120.145 191.557 118.586 189.994 116.664 189.994C114.741 189.994 113.182 191.557 113.182 193.484C113.182 195.412 114.741 196.974 116.664 196.974Z" fill="#D5D46E"/>
<path d="M123.424 196.974C125.347 196.974 126.906 195.412 126.906 193.484C126.906 191.557 125.347 189.994 123.424 189.994C121.501 189.994 119.942 191.557 119.942 193.484C119.942 195.412 121.501 196.974 123.424 196.974Z" fill="#D5D46E"/>
<path d="M136.945 196.974C138.868 196.974 140.427 195.412 140.427 193.484C140.427 191.557 138.868 189.994 136.945 189.994C135.022 189.994 133.464 191.557 133.464 193.484C133.464 195.412 135.022 196.974 136.945 196.974Z" fill="#D5D46E"/>
<path d="M157.227 196.974C159.15 196.974 160.709 195.412 160.709 193.484C160.709 191.557 159.15 189.994 157.227 189.994C155.304 189.994 153.745 191.557 153.745 193.484C153.745 195.412 155.304 196.974 157.227 196.974Z" fill="#D5D46E"/>
<path d="M163.988 196.974C165.911 196.974 167.47 195.412 167.47 193.484C167.47 191.557 165.911 189.994 163.988 189.994C162.065 189.994 160.506 191.557 160.506 193.484C160.506 195.412 162.065 196.974 163.988 196.974Z" fill="#D5D46E"/>
<path d="M191.03 196.974C192.953 196.974 194.512 195.412 194.512 193.484C194.512 191.557 192.953 189.994 191.03 189.994C189.107 189.994 187.548 191.557 187.548 193.484C187.548 195.412 189.107 196.974 191.03 196.974Z" fill="#D5D46E"/>
<path d="M197.791 196.974C199.714 196.974 201.272 195.412 201.272 193.484C201.272 191.557 199.714 189.994 197.791 189.994C195.868 189.994 194.309 191.557 194.309 193.484C194.309 195.412 195.868 196.974 197.791 196.974Z" fill="#D5D46E"/>
<path d="M218.073 196.974C219.996 196.974 221.554 195.412 221.554 193.484C221.554 191.557 219.996 189.994 218.073 189.994C216.15 189.994 214.591 191.557 214.591 193.484C214.591 195.412 216.15 196.974 218.073 196.974Z" fill="#D5D46E"/>
<path d="M82.8606 203.751C84.7835 203.751 86.3423 202.188 86.3423 200.261C86.3423 198.333 84.7835 196.771 82.8606 196.771C80.9377 196.771 79.3789 198.333 79.3789 200.261C79.3789 202.188 80.9377 203.751 82.8606 203.751Z" fill="#D5D46E"/>
<path d="M123.424 203.751C125.347 203.751 126.906 202.188 126.906 200.261C126.906 198.333 125.347 196.771 123.424 196.771C121.501 196.771 119.942 198.333 119.942 200.261C119.942 202.188 121.501 203.751 123.424 203.751Z" fill="#D5D46E"/>
<path d="M136.945 203.751C138.868 203.751 140.427 202.188 140.427 200.261C140.427 198.333 138.868 196.771 136.945 196.771C135.022 196.771 133.464 198.333 133.464 200.261C133.464 202.188 135.022 203.751 136.945 203.751Z" fill="#D5D46E"/>
<path d="M143.706 203.751C145.629 203.751 147.188 202.188 147.188 200.261C147.188 198.333 145.629 196.771 143.706 196.771C141.783 196.771 140.224 198.333 140.224 200.261C140.224 202.188 141.783 203.751 143.706 203.751Z" fill="#D5D46E"/>
<path d="M163.988 203.751C165.911 203.751 167.47 202.188 167.47 200.261C167.47 198.333 165.911 196.771 163.988 196.771C162.065 196.771 160.506 198.333 160.506 200.261C160.506 202.188 162.065 203.751 163.988 203.751Z" fill="#D5D46E"/>
<path d="M170.748 203.751C172.671 203.751 174.23 202.188 174.23 200.261C174.23 198.333 172.671 196.771 170.748 196.771C168.825 196.771 167.267 198.333 167.267 200.261C167.267 202.188 168.825 203.751 170.748 203.751Z" fill="#D5D46E"/>
<path d="M177.509 203.751C179.432 203.751 180.991 202.188 180.991 200.261C180.991 198.333 179.432 196.771 177.509 196.771C175.586 196.771 174.027 198.333 174.027 200.261C174.027 202.188 175.586 203.751 177.509 203.751Z" fill="#D5D46E"/>
<path d="M184.27 203.751C186.192 203.751 187.751 202.188 187.751 200.261C187.751 198.333 186.192 196.771 184.27 196.771C182.347 196.771 180.788 198.333 180.788 200.261C180.788 202.188 182.347 203.751 184.27 203.751Z" fill="#D5D46E"/>
<path d="M191.03 203.751C192.953 203.751 194.512 202.188 194.512 200.261C194.512 198.333 192.953 196.771 191.03 196.771C189.107 196.771 187.548 198.333 187.548 200.261C187.548 202.188 189.107 203.751 191.03 203.751Z" fill="#D5D46E"/>
<path d="M197.791 203.751C199.714 203.751 201.272 202.188 201.272 200.261C201.272 198.333 199.714 196.771 197.791 196.771C195.868 196.771 194.309 198.333 194.309 200.261C194.309 202.188 195.868 203.751 197.791 203.751Z" fill="#D5D46E"/>
<path d="M204.551 203.751C206.474 203.751 208.033 202.188 208.033 200.261C208.033 198.333 206.474 196.771 204.551 196.771C202.628 196.771 201.07 198.333 201.07 200.261C201.07 202.188 202.628 203.751 204.551 203.751Z" fill="#D5D46E"/>
<path d="M211.312 203.751C213.235 203.751 214.794 202.188 214.794 200.261C214.794 198.333 213.235 196.771 211.312 196.771C209.389 196.771 207.83 198.333 207.83 200.261C207.83 202.188 209.389 203.751 211.312 203.751Z" fill="#D5D46E"/>
<path d="M82.8606 210.528C84.7835 210.528 86.3423 208.965 86.3423 207.038C86.3423 205.11 84.7835 203.548 82.8606 203.548C80.9377 203.548 79.3789 205.11 79.3789 207.038C79.3789 208.965 80.9377 210.528 82.8606 210.528Z" fill="#D5D46E"/>
<path d="M136.945 210.528C138.868 210.528 140.427 208.965 140.427 207.038C140.427 205.11 138.868 203.548 136.945 203.548C135.022 203.548 133.464 205.11 133.464 207.038C133.464 208.965 135.022 210.528 136.945 210.528Z" fill="#D5D46E"/>
<path d="M157.227 210.528C159.15 210.528 160.709 208.965 160.709 207.038C160.709 205.11 159.15 203.548 157.227 203.548C155.304 203.548 153.745 205.11 153.745 207.038C153.745 208.965 155.304 210.528 157.227 210.528Z" fill="#D5D46E"/>
<path d="M163.988 210.528C165.911 210.528 167.47 208.965 167.47 207.038C167.47 205.11 165.911 203.548 163.988 203.548C162.065 203.548 160.506 205.11 160.506 207.038C160.506 208.965 162.065 210.528 163.988 210.528Z" fill="#D5D46E"/>
<path d="M170.748 210.528C172.671 210.528 174.23 208.965 174.23 207.038C174.23 205.11 172.671 203.548 170.748 203.548C168.825 203.548 167.267 205.11 167.267 207.038C167.267 208.965 168.825 210.528 170.748 210.528Z" fill="#D5D46E"/>
<path d="M184.27 210.528C186.192 210.528 187.751 208.965 187.751 207.038C187.751 205.11 186.192 203.548 184.27 203.548C182.347 203.548 180.788 205.11 180.788 207.038C180.788 208.965 182.347 210.528 184.27 210.528Z" fill="#D5D46E"/>
<path d="M82.8606 217.305C84.7835 217.305 86.3423 215.742 86.3423 213.815C86.3423 211.887 84.7835 210.325 82.8606 210.325C80.9377 210.325 79.3789 211.887 79.3789 213.815C79.3789 215.742 80.9377 217.305 82.8606 217.305Z" fill="#D5D46E"/>
<path d="M89.6212 217.305C91.5441 217.305 93.1029 215.742 93.1029 213.815C93.1029 211.887 91.5441 210.325 89.6212 210.325C87.6983 210.325 86.1395 211.887 86.1395 213.815C86.1395 215.742 87.6983 217.305 89.6212 217.305Z" fill="#D5D46E"/>
<path d="M96.3818 217.305C98.3047 217.305 99.8635 215.742 99.8635 213.815C99.8635 211.887 98.3047 210.325 96.3818 210.325C94.4589 210.325 92.9001 211.887 92.9001 213.815C92.9001 215.742 94.4589 217.305 96.3818 217.305Z" fill="#D5D46E"/>
<path d="M103.142 217.305C105.065 217.305 106.624 215.742 106.624 213.815C106.624 211.887 105.065 210.325 103.142 210.325C101.219 210.325 99.6606 211.887 99.6606 213.815C99.6606 215.742 101.219 217.305 103.142 217.305Z" fill="#D5D46E"/>
<path d="M109.903 217.305C111.826 217.305 113.385 215.742 113.385 213.815C113.385 211.887 111.826 210.325 109.903 210.325C107.98 210.325 106.421 211.887 106.421 213.815C106.421 215.742 107.98 217.305 109.903 217.305Z" fill="#D5D46E"/>
<path d="M116.664 217.305C118.586 217.305 120.145 215.742 120.145 213.815C120.145 211.887 118.586 210.325 116.664 210.325C114.741 210.325 113.182 211.887 113.182 213.815C113.182 215.742 114.741 217.305 116.664 217.305Z" fill="#D5D46E"/>
<path d="M150.467 217.305C152.39 217.305 153.948 215.742 153.948 213.815C153.948 211.887 152.39 210.325 150.467 210.325C148.544 210.325 146.985 211.887 146.985 213.815C146.985 215.742 148.544 217.305 150.467 217.305Z" fill="#D5D46E"/>
<path d="M157.227 217.305C159.15 217.305 160.709 215.742 160.709 213.815C160.709 211.887 159.15 210.325 157.227 210.325C155.304 210.325 153.745 211.887 153.745 213.815C153.745 215.742 155.304 217.305 157.227 217.305Z" fill="#D5D46E"/>
<path d="M163.988 217.305C165.911 217.305 167.47 215.742 167.47 213.815C167.47 211.887 165.911 210.325 163.988 210.325C162.065 210.325 160.506 211.887 160.506 213.815C160.506 215.742 162.065 217.305 163.988 217.305Z" fill="#D5D46E"/>
<path d="M170.748 217.305C172.671 217.305 174.23 215.742 174.23 213.815C174.23 211.887 172.671 210.325 170.748 210.325C168.825 210.325 167.267 211.887 167.267 213.815C167.267 215.742 168.825 217.305 170.748 217.305Z" fill="#D5D46E"/>
<path d="M177.509 217.305C179.432 217.305 180.991 215.743 180.991 213.815C180.991 211.887 179.432 210.325 177.509 210.325C175.586 210.325 174.027 211.887 174.027 213.815C174.027 215.743 175.586 217.305 177.509 217.305Z" fill="#D5D46E"/>
<path d="M184.27 217.305C186.192 217.305 187.751 215.742 187.751 213.815C187.751 211.887 186.192 210.325 184.27 210.325C182.347 210.325 180.788 211.887 180.788 213.815C180.788 215.742 182.347 217.305 184.27 217.305Z" fill="#D5D46E"/>
<path d="M191.03 217.305C192.953 217.305 194.512 215.742 194.512 213.815C194.512 211.887 192.953 210.325 191.03 210.325C189.107 210.325 187.548 211.887 187.548 213.815C187.548 215.742 189.107 217.305 191.03 217.305Z" fill="#D5D46E"/>
<path d="M197.791 217.305C199.714 217.305 201.272 215.742 201.272 213.815C201.272 211.887 199.714 210.325 197.791 210.325C195.868 210.325 194.309 211.887 194.309 213.815C194.309 215.742 195.868 217.305 197.791 217.305Z" fill="#D5D46E"/>
<path d="M204.551 217.305C206.474 217.305 208.033 215.742 208.033 213.815C208.033 211.887 206.474 210.325 204.551 210.325C202.628 210.325 201.07 211.887 201.07 213.815C201.07 215.742 202.628 217.305 204.551 217.305Z" fill="#D5D46E"/>
<path d="M211.312 217.305C213.235 217.305 214.794 215.742 214.794 213.815C214.794 211.887 213.235 210.325 211.312 210.325C209.389 210.325 207.83 211.887 207.83 213.815C207.83 215.742 209.389 217.305 211.312 217.305Z" fill="#D5D46E"/>
<path d="M96.3818 224.082C98.3047 224.082 99.8635 222.519 99.8635 220.592C99.8635 218.664 98.3047 217.102 96.3818 217.102C94.4589 217.102 92.9001 218.664 92.9001 220.592C92.9001 222.519 94.4589 224.082 96.3818 224.082Z" fill="#D5D46E"/>
<path d="M103.142 224.082C105.065 224.082 106.624 222.519 106.624 220.592C106.624 218.664 105.065 217.102 103.142 217.102C101.219 217.102 99.6606 218.664 99.6606 220.592C99.6606 222.519 101.219 224.082 103.142 224.082Z" fill="#D5D46E"/>
<path d="M109.903 224.082C111.826 224.082 113.385 222.519 113.385 220.592C113.385 218.664 111.826 217.102 109.903 217.102C107.98 217.102 106.421 218.664 106.421 220.592C106.421 222.519 107.98 224.082 109.903 224.082Z" fill="#D5D46E"/>
<path d="M123.424 224.082C125.347 224.082 126.906 222.519 126.906 220.592C126.906 218.664 125.347 217.102 123.424 217.102C121.501 217.102 119.942 218.664 119.942 220.592C119.942 222.519 121.501 224.082 123.424 224.082Z" fill="#D5D46E"/>
<path d="M143.706 224.082C145.629 224.082 147.188 222.519 147.188 220.592C147.188 218.664 145.629 217.102 143.706 217.102C141.783 217.102 140.224 218.664 140.224 220.592C140.224 222.519 141.783 224.082 143.706 224.082Z" fill="#D5D46E"/>
<path d="M150.467 224.082C152.39 224.082 153.948 222.519 153.948 220.592C153.948 218.664 152.39 217.102 150.467 217.102C148.544 217.102 146.985 218.664 146.985 220.592C146.985 222.519 148.544 224.082 150.467 224.082Z" fill="#D5D46E"/>
<path d="M163.988 224.082C165.911 224.082 167.47 222.519 167.47 220.592C167.47 218.664 165.911 217.102 163.988 217.102C162.065 217.102 160.506 218.664 160.506 220.592C160.506 222.519 162.065 224.082 163.988 224.082Z" fill="#D5D46E"/>
<path d="M191.03 224.082C192.953 224.082 194.512 222.519 194.512 220.592C194.512 218.664 192.953 217.102 191.03 217.102C189.107 217.102 187.548 218.664 187.548 220.592C187.548 222.519 189.107 224.082 191.03 224.082Z" fill="#D5D46E"/>
<path d="M211.312 224.082C213.235 224.082 214.794 222.519 214.794 220.592C214.794 218.664 213.235 217.102 211.312 217.102C209.389 217.102 207.83 218.664 207.83 220.592C207.83 222.519 209.389 224.082 211.312 224.082Z" fill="#D5D46E"/>
<path d="M89.6212 230.859C91.5441 230.859 93.1029 229.296 93.1029 227.369C93.1029 225.441 91.5441 223.879 89.6212 223.879C87.6983 223.879 86.1395 225.441 86.1395 227.369C86.1395 229.296 87.6983 230.859 89.6212 230.859Z" fill="#D5D46E"/>
<path d="M96.3818 230.859C98.3047 230.859 99.8635 229.296 99.8635 227.369C99.8635 225.441 98.3047 223.879 96.3818 223.879C94.4589 223.879 92.9001 225.441 92.9001 227.369C92.9001 229.296 94.4589 230.859 96.3818 230.859Z" fill="#D5D46E"/>
<path d="M116.664 230.859C118.586 230.859 120.145 229.296 120.145 227.369C120.145 225.441 118.586 223.879 116.664 223.879C114.741 223.879 113.182 225.441 113.182 227.369C113.182 229.296 114.741 230.859 116.664 230.859Z" fill="#D5D46E"/>
<path d="M123.424 230.859C125.347 230.859 126.906 229.296 126.906 227.369C126.906 225.441 125.347 223.879 123.424 223.879C121.501 223.879 119.942 225.441 119.942 227.369C119.942 229.296 121.501 230.859 123.424 230.859Z" fill="#D5D46E"/>
<path d="M150.467 230.859C152.39 230.859 153.948 229.296 153.948 227.369C153.948 225.441 152.39 223.879 150.467 223.879C148.544 223.879 146.985 225.441 146.985 227.369C146.985 229.296 148.544 230.859 150.467 230.859Z" fill="#D5D46E"/>
<path d="M157.227 230.859C159.15 230.859 160.709 229.296 160.709 227.369C160.709 225.441 159.15 223.879 157.227 223.879C155.304 223.879 153.745 225.441 153.745 227.369C153.745 229.296 155.304 230.859 157.227 230.859Z" fill="#D5D46E"/>
<path d="M191.03 230.859C192.953 230.859 194.512 229.296 194.512 227.369C194.512 225.441 192.953 223.879 191.03 223.879C189.107 223.879 187.548 225.441 187.548 227.369C187.548 229.296 189.107 230.859 191.03 230.859Z" fill="#D5D46E"/>
<path d="M204.551 230.859C206.474 230.859 208.033 229.296 208.033 227.369C208.033 225.441 206.474 223.879 204.551 223.879C202.628 223.879 201.07 225.441 201.07 227.369C201.07 229.296 202.628 230.859 204.551 230.859Z" fill="#D5D46E"/>
<path d="M25.2939 34.1245V81.563H72.6181V34.1245H25.2939ZM65.8575 74.7861H32.0545V40.9014H65.8575V74.7861Z" fill="#D5D46E"/>
<path d="M174.027 34.1245V81.563H221.351V34.1245H174.027ZM214.591 74.7861H180.788V40.9015H214.591V74.7861Z" fill="#D5D46E"/>
<path d="M25.294 183.217V230.655H72.6182V183.217H25.294ZM65.8576 223.878H32.0546V189.994H65.8576V223.878Z" fill="#D5D46E"/>
<path d="M48.9561 68.0091C54.5568 68.0091 59.097 63.4579 59.097 57.8437C59.097 52.2296 54.5568 47.6783 48.9561 47.6783C43.3554 47.6783 38.8152 52.2296 38.8152 57.8437C38.8152 63.4579 43.3554 68.0091 48.9561 68.0091Z" fill="#D5D46E"/>
<path d="M197.689 68.0091C203.29 68.0091 207.83 63.4579 207.83 57.8437C207.83 52.2296 203.29 47.6783 197.689 47.6783C192.089 47.6783 187.548 52.2296 187.548 57.8437C187.548 63.4579 192.089 68.0091 197.689 68.0091Z" fill="#D5D46E"/>
<path d="M48.9561 217.102C54.5568 217.102 59.097 212.55 59.097 206.936C59.097 201.322 54.5568 196.771 48.9561 196.771C43.3554 196.771 38.8152 201.322 38.8152 206.936C38.8152 212.55 43.3554 217.102 48.9561 217.102Z" fill="#D5D46E"/>
</g>
<path fill-rule="evenodd" clip-rule="evenodd" d="M241.593 302.799C246.786 292.314 246.786 278.658 246.786 251.345L0 251.345C0 278.658 0 292.314 5.19306 302.799C10.0509 312.607 17.9937 320.55 27.8019 325.408C38.2871 330.601 51.9435 330.601 79.2563 330.601L167.53 330.601C194.843 330.601 208.499 330.601 218.984 325.408C228.793 320.55 236.736 312.607 241.593 302.799ZM100.432 274.381V285.751H103.026V274.381H100.432ZM100.411 270.122V272.608H103.026V270.122H100.411ZM117.412 285.578C117.801 285.866 118.342 286.01 119.034 286.01C119.279 286.01 119.552 285.981 119.855 285.924C120.158 285.866 120.403 285.808 120.59 285.751V283.827H119.855C119.25 283.827 118.947 283.517 118.947 282.897V276.564H120.59V274.381H118.947V271.181H116.742L116.353 274.381H115.207V276.564H116.353V282.962C116.353 283.467 116.432 283.957 116.591 284.432C116.749 284.893 117.023 285.275 117.412 285.578ZM158.548 274.381V285.751H161.142V279.417C161.142 278.74 161.235 278.214 161.423 277.839C161.625 277.465 161.884 277.198 162.201 277.039C162.532 276.881 162.886 276.802 163.26 276.802H164.19V274.294L163.887 274.208C163.7 274.15 163.44 274.121 163.109 274.121C162.532 274.121 162.1 274.323 161.812 274.727C161.524 275.13 161.3 275.57 161.142 276.045H161.012L160.709 274.381H158.548ZM75.3229 291.739V307.367H77.9169V300.363C77.9169 299.729 78.0826 299.196 78.414 298.764C78.7599 298.317 79.185 298.094 79.6894 298.094C80.1506 298.094 80.5108 298.245 80.7702 298.548C81.044 298.85 81.1809 299.369 81.1809 300.104V307.367H83.7749V299.391C83.7749 298.051 83.4867 297.107 82.9102 296.559C82.3482 296.011 81.6277 295.738 80.7486 295.738C80.0857 295.738 79.5237 295.896 79.0625 296.213C78.6014 296.516 78.2483 296.847 78.0033 297.208H77.9169V291.739H75.3229ZM90.389 307.627C88.8758 307.627 87.7374 307.151 86.9736 306.2C86.2242 305.234 85.8495 303.728 85.8495 301.682C85.8495 299.636 86.2242 298.137 86.9736 297.186C87.7374 296.22 88.8758 295.738 90.389 295.738C91.9021 295.738 93.0334 296.22 93.7827 297.186C94.5465 298.137 94.9284 299.636 94.9284 301.682C94.9284 303.728 94.5465 305.234 93.7827 306.2C93.0334 307.151 91.9021 307.627 90.389 307.627ZM90.389 305.443C91.0663 305.443 91.5418 305.162 91.8157 304.6C92.0895 304.024 92.2264 303.188 92.2264 302.093V301.271C92.2264 300.176 92.0895 299.348 91.8157 298.786C91.5418 298.209 91.0663 297.921 90.389 297.921C89.7261 297.921 89.2505 298.209 88.9623 298.786C88.6885 299.348 88.5516 300.176 88.5516 301.271V302.093C88.5516 303.188 88.6885 304.024 88.9623 304.6C89.2505 305.162 89.7261 305.443 90.389 305.443ZM96.9814 307.367H99.5754V300.363C99.5754 299.729 99.7411 299.196 100.073 298.764C100.418 298.317 100.844 298.094 101.348 298.094C101.809 298.094 102.169 298.245 102.429 298.548C102.703 298.85 102.839 299.369 102.839 300.104V307.367H105.433V299.391C105.433 298.051 105.145 297.107 104.569 296.559C104.007 296.011 103.286 295.738 102.407 295.738C101.73 295.738 101.153 295.903 100.678 296.235C100.202 296.566 99.8204 296.955 99.5322 297.402H99.4025L99.1431 295.997H96.9814V307.367ZM111.745 307.627C110.289 307.627 109.18 307.151 108.416 306.2C107.667 305.234 107.292 303.728 107.292 301.682C107.292 299.636 107.667 298.137 108.416 297.186C109.18 296.22 110.261 295.738 111.658 295.738C113.027 295.738 114.051 296.22 114.728 297.186C115.42 298.137 115.766 299.636 115.766 301.682V302.331H109.994C110.008 303.339 110.145 304.125 110.405 304.687C110.664 305.234 111.111 305.508 111.745 305.508C112.192 305.508 112.545 305.321 112.804 304.946C113.063 304.557 113.193 304.024 113.193 303.347H115.766C115.766 304.802 115.384 305.883 114.62 306.589C113.856 307.281 112.898 307.627 111.745 307.627ZM110.016 300.45H113.042C113.042 299.629 112.927 298.994 112.696 298.548C112.48 298.087 112.134 297.856 111.658 297.856C111.111 297.856 110.707 298.087 110.448 298.548C110.203 298.994 110.059 299.629 110.016 300.45ZM123.322 306.2C124.014 307.151 125.102 307.627 126.587 307.627C127.379 307.627 128.064 307.468 128.64 307.151C129.231 306.834 129.685 306.344 130.002 305.681C130.319 305.004 130.477 304.139 130.477 303.087H127.905C127.905 303.865 127.797 304.456 127.581 304.86C127.379 305.249 127.048 305.443 126.587 305.443C126.01 305.443 125.599 305.162 125.354 304.6C125.109 304.024 124.987 303.188 124.987 302.093V301.271C124.987 300.176 125.102 299.348 125.333 298.786C125.563 298.209 125.952 297.921 126.5 297.921C126.947 297.921 127.278 298.115 127.494 298.504C127.711 298.879 127.819 299.47 127.819 300.277H130.477C130.477 298.692 130.117 297.539 129.397 296.818C128.676 296.098 127.711 295.738 126.5 295.738C125.102 295.738 124.05 296.22 123.344 297.186C122.638 298.137 122.285 299.636 122.285 301.682C122.285 303.728 122.631 305.234 123.322 306.2ZM134.413 307.627C134.153 307.627 133.858 307.583 133.527 307.497C133.195 307.41 132.878 307.252 132.575 307.021C132.287 306.791 132.042 306.466 131.84 306.049C131.653 305.631 131.559 305.09 131.559 304.427C131.559 303.404 131.797 302.604 132.273 302.028C132.763 301.452 133.433 301.048 134.283 300.817C135.133 300.572 136.106 300.45 137.201 300.45V299.261C137.201 298.872 137.129 298.541 136.985 298.267C136.841 297.993 136.517 297.856 136.012 297.856C135.479 297.856 135.119 297.986 134.932 298.245C134.744 298.504 134.651 298.771 134.651 299.045V299.369H132.121C132.107 299.297 132.1 299.225 132.1 299.153V298.894C132.1 297.942 132.446 297.179 133.137 296.602C133.844 296.026 134.78 295.738 135.948 295.738C137.273 295.738 138.246 296.033 138.866 296.624C139.5 297.2 139.817 298.022 139.817 299.088V304.687C139.817 304.961 139.882 305.155 140.011 305.27C140.141 305.386 140.278 305.443 140.422 305.443H140.941V307.281C140.797 307.353 140.602 307.425 140.357 307.497C140.112 307.583 139.795 307.627 139.406 307.627C138.887 307.627 138.455 307.49 138.109 307.216C137.763 306.942 137.526 306.582 137.396 306.135H137.288C136.971 306.582 136.603 306.942 136.185 307.216C135.767 307.49 135.177 307.627 134.413 307.627ZM135.494 305.465C135.912 305.465 136.243 305.35 136.488 305.119C136.733 304.889 136.913 304.586 137.028 304.211C137.144 303.837 137.201 303.426 137.201 302.979V302.331C136.697 302.331 136.214 302.388 135.753 302.504C135.306 302.604 134.939 302.792 134.651 303.066C134.362 303.325 134.218 303.7 134.218 304.19C134.218 304.579 134.319 304.889 134.521 305.119C134.723 305.35 135.047 305.465 135.494 305.465ZM144.466 295.997H142.304V307.367H144.898V300.363C144.898 299.686 145.042 299.139 145.33 298.721C145.633 298.303 146.008 298.094 146.454 298.094C146.887 298.094 147.211 298.245 147.427 298.548C147.643 298.85 147.751 299.369 147.751 300.104V307.367H150.302V300.191C150.302 299.556 150.461 299.052 150.778 298.677C151.095 298.288 151.462 298.094 151.88 298.094C152.312 298.094 152.629 298.245 152.831 298.548C153.047 298.85 153.155 299.369 153.155 300.104V307.367H155.749V299.391C155.749 298.468 155.627 297.748 155.382 297.229C155.137 296.696 154.805 296.314 154.387 296.083C153.97 295.853 153.487 295.738 152.939 295.738C152.262 295.738 151.671 295.903 151.167 296.235C150.677 296.566 150.288 296.955 149.999 297.402C149.769 296.811 149.445 296.386 149.027 296.127C148.609 295.867 148.119 295.738 147.557 295.738C146.937 295.738 146.397 295.903 145.936 296.235C145.489 296.566 145.128 296.955 144.855 297.402H144.725L144.466 295.997ZM161.986 307.627C160.53 307.627 159.421 307.151 158.657 306.2C157.908 305.234 157.533 303.728 157.533 301.682C157.533 299.636 157.908 298.137 158.657 297.186C159.421 296.22 160.502 295.738 161.9 295.738C163.269 295.738 164.292 296.22 164.969 297.186C165.661 298.137 166.007 299.636 166.007 301.682V302.331H160.235C160.249 303.339 160.386 304.125 160.646 304.687C160.905 305.234 161.352 305.508 161.986 305.508C162.433 305.508 162.786 305.321 163.045 304.946C163.305 304.557 163.434 304.024 163.434 303.347H166.007C166.007 304.802 165.625 305.883 164.861 306.589C164.097 307.281 163.139 307.627 161.986 307.627ZM160.257 300.45H163.283C163.283 299.629 163.168 298.994 162.937 298.548C162.721 298.087 162.375 297.856 161.9 297.856C161.352 297.856 160.948 298.087 160.689 298.548C160.444 298.994 160.3 299.629 160.257 300.45ZM167.91 307.367H170.504V301.034C170.504 300.356 170.598 299.83 170.785 299.456C170.987 299.081 171.246 298.814 171.563 298.656C171.895 298.497 172.248 298.418 172.622 298.418H173.552V295.911L173.249 295.824C173.062 295.766 172.803 295.738 172.471 295.738C171.895 295.738 171.462 295.939 171.174 296.343C170.886 296.746 170.662 297.186 170.504 297.661H170.374L170.072 295.997H167.91V307.367ZM175.894 307.497C176.225 307.583 176.521 307.627 176.78 307.627C177.544 307.627 178.135 307.49 178.553 307.216C178.97 306.942 179.338 306.582 179.655 306.135H179.763C179.893 306.582 180.13 306.942 180.476 307.216C180.822 307.49 181.255 307.627 181.773 307.627C182.162 307.627 182.479 307.583 182.724 307.497C182.969 307.425 183.164 307.353 183.308 307.281V305.443H182.789C182.645 305.443 182.508 305.386 182.379 305.27C182.249 305.155 182.184 304.961 182.184 304.687V299.088C182.184 298.022 181.867 297.2 181.233 296.624C180.613 296.033 179.641 295.738 178.315 295.738C177.147 295.738 176.211 296.026 175.505 296.602C174.813 297.179 174.467 297.942 174.467 298.894V299.153C174.467 299.225 174.474 299.297 174.489 299.369H177.018V299.045C177.018 298.771 177.111 298.504 177.299 298.245C177.486 297.986 177.846 297.856 178.38 297.856C178.884 297.856 179.208 297.993 179.352 298.267C179.496 298.541 179.568 298.872 179.568 299.261V300.45C178.473 300.45 177.501 300.572 176.65 300.817C175.8 301.048 175.13 301.452 174.64 302.028C174.164 302.604 173.927 303.404 173.927 304.427C173.927 305.09 174.02 305.631 174.208 306.049C174.409 306.466 174.654 306.791 174.943 307.021C175.245 307.252 175.562 307.41 175.894 307.497ZM178.855 305.119C178.61 305.35 178.279 305.465 177.861 305.465C177.414 305.465 177.09 305.35 176.888 305.119C176.686 304.889 176.585 304.579 176.585 304.19C176.585 303.7 176.73 303.325 177.018 303.066C177.306 302.792 177.673 302.604 178.12 302.504C178.581 302.388 179.064 302.331 179.568 302.331V302.979C179.568 303.426 179.511 303.837 179.396 304.211C179.28 304.586 179.1 304.889 178.855 305.119ZM64.4936 311.107V295.997H66.6553L66.9147 297.402H67.0227C67.311 296.854 67.6784 296.444 68.1252 296.17C68.5719 295.882 69.0619 295.738 69.5951 295.738C70.7191 295.738 71.6054 296.22 72.2539 297.186C72.9168 298.137 73.2482 299.643 73.2482 301.704C73.2482 303.073 73.0897 304.197 72.7727 305.076C72.4701 305.955 72.0521 306.603 71.5189 307.021C71.0001 307.425 70.4021 307.627 69.7248 307.627C69.1483 307.627 68.6296 307.504 68.1684 307.259C67.7217 307 67.3974 306.647 67.1957 306.2H67.0876V311.107H64.4936ZM68.8169 305.27C69.451 305.27 69.8977 304.997 70.1571 304.449C70.4165 303.901 70.5462 303.116 70.5462 302.093V301.271C70.5462 300.248 70.4165 299.463 70.1571 298.915C69.8977 298.368 69.451 298.094 68.8169 298.094C68.1972 298.094 67.7505 298.368 67.4767 298.915C67.2173 299.463 67.0876 300.248 67.0876 301.271V302.05C67.0876 303.073 67.2173 303.865 67.4767 304.427C67.7505 304.989 68.1972 305.27 68.8169 305.27ZM150.745 286.01C149.866 286.01 149.138 285.736 148.562 285.189C148 284.641 147.719 283.697 147.719 282.357V274.381H150.313V281.644C150.313 282.379 150.435 282.897 150.68 283.2C150.939 283.503 151.314 283.654 151.804 283.654C152.308 283.654 152.726 283.445 153.058 283.027C153.404 282.595 153.577 282.062 153.577 281.428V274.381H156.171V285.751H154.009L153.75 284.346H153.62C153.332 284.793 152.95 285.182 152.474 285.513C151.999 285.845 151.422 286.01 150.745 286.01ZM137.711 284.584C138.475 285.535 139.613 286.01 141.126 286.01C142.639 286.01 143.771 285.535 144.52 284.584C145.284 283.618 145.666 282.112 145.666 280.066C145.666 278.019 145.284 276.521 144.52 275.57C143.771 274.604 142.639 274.121 141.126 274.121C139.613 274.121 138.475 274.604 137.711 275.57C136.961 276.521 136.587 278.019 136.587 280.066C136.587 282.112 136.961 283.618 137.711 284.584ZM142.553 282.984C142.279 283.546 141.803 283.827 141.126 283.827C140.463 283.827 139.988 283.546 139.699 282.984C139.426 282.408 139.289 281.572 139.289 280.476V279.655C139.289 278.56 139.426 277.731 139.699 277.169C139.988 276.593 140.463 276.305 141.126 276.305C141.803 276.305 142.279 276.593 142.553 277.169C142.827 277.731 142.964 278.56 142.964 279.655V280.476C142.964 281.572 142.827 282.408 142.553 282.984ZM128.479 289.685C127.961 289.685 127.55 289.656 127.247 289.599C126.945 289.541 126.793 289.505 126.793 289.49V287.502H127.961C128.335 287.502 128.681 287.365 128.998 287.091C129.33 286.817 129.567 286.371 129.712 285.751L125.929 274.381H128.674L130.382 279.72C130.454 279.936 130.526 280.21 130.598 280.541C130.67 280.873 130.735 281.204 130.792 281.536C130.85 281.853 130.893 282.127 130.922 282.357L130.987 282.681H131.073L131.117 282.379C131.145 282.163 131.189 281.896 131.246 281.579C131.304 281.262 131.362 280.938 131.419 280.606C131.491 280.275 131.556 279.986 131.614 279.742L133.019 274.381H135.613L132.5 285.167C132.269 285.989 131.974 286.738 131.614 287.415C131.268 288.107 130.843 288.655 130.338 289.058C129.834 289.476 129.214 289.685 128.479 289.685ZM105.373 285.751V274.381H107.534L107.794 275.786H107.923C108.211 275.339 108.593 274.95 109.069 274.618C109.545 274.287 110.121 274.121 110.798 274.121C111.677 274.121 112.398 274.395 112.96 274.943C113.536 275.49 113.825 276.434 113.825 277.774V285.751H111.231V278.488C111.231 277.753 111.094 277.234 110.82 276.931C110.56 276.629 110.2 276.477 109.739 276.477C109.235 276.477 108.81 276.701 108.464 277.148C108.132 277.58 107.967 278.113 107.967 278.747V285.751H105.373ZM93.8615 286.01C92.3484 286.01 91.2099 285.535 90.4461 284.584C89.6968 283.618 89.3221 282.112 89.3221 280.066C89.3221 278.019 89.6968 276.521 90.4461 275.57C91.2099 274.604 92.3484 274.121 93.8615 274.121C95.3747 274.121 96.5059 274.604 97.2553 275.57C98.0191 276.521 98.4009 278.019 98.4009 280.066C98.4009 282.112 98.0191 283.618 97.2553 284.584C96.5059 285.535 95.3747 286.01 93.8615 286.01ZM93.8615 283.827C94.5388 283.827 95.0144 283.546 95.2882 282.984C95.562 282.408 95.6989 281.572 95.6989 280.476V279.655C95.6989 278.56 95.562 277.731 95.2882 277.169C95.0144 276.593 94.5388 276.305 93.8615 276.305C93.1986 276.305 92.7231 276.593 92.4348 277.169C92.161 277.731 92.0241 278.56 92.0241 279.655V280.476C92.0241 281.572 92.161 282.408 92.4348 282.984C92.7231 283.546 93.1986 283.827 93.8615 283.827ZM78.7954 274.381V289.49H81.3894V284.584H81.4975C81.6992 285.03 82.0235 285.383 82.4702 285.643C82.9314 285.888 83.4502 286.01 84.0266 286.01C84.7039 286.01 85.302 285.808 85.8208 285.405C86.354 284.987 86.7719 284.339 87.0745 283.46C87.3915 282.58 87.5501 281.456 87.5501 280.087C87.5501 278.027 87.2186 276.521 86.5557 275.57C85.9072 274.604 85.021 274.121 83.8969 274.121C83.3637 274.121 82.8737 274.265 82.427 274.554C81.9803 274.827 81.6128 275.238 81.3246 275.786H81.2165L80.9571 274.381H78.7954ZM84.4589 282.833C84.1995 283.38 83.7528 283.654 83.1187 283.654C82.499 283.654 82.0523 283.373 81.7785 282.811C81.5191 282.249 81.3894 281.456 81.3894 280.433V279.655C81.3894 278.632 81.5191 277.846 81.7785 277.299C82.0523 276.751 82.499 276.477 83.1187 276.477C83.7528 276.477 84.1995 276.751 84.4589 277.299C84.7183 277.846 84.848 278.632 84.848 279.655V280.476C84.848 281.5 84.7183 282.285 84.4589 282.833Z" fill="#D5D46E"/>
</g>
<defs>
<clipPath id="clip0_320_1574">
<rect width="246.786" height="331" fill="white"/>
</clipPath>
<clipPath id="clip1_320_1574">
<rect width="196.48" height="196.955" fill="white" transform="translate(25.1533 33.9834)"/>
</clipPath>
</defs>
</svg>
