<svg x="0px" y="0px" viewBox="0 0 312 88">

	<g>
		<path d="M283.4,61.7c-8.4-4.6-11.9-12.8-12-19.6V0.5h-22.8v16.7l43.3,69.7C293,87,312,87,312,87V64.5
			C312,64.5,291.4,66,283.4,61.7z M238.7,7L289,87h-25.8l-24.5-39.6L214.2,87h-25.8L238.7,7z M172.5,75.1
			c-8.6-11.8-10.1-24.9-8.5-35.2c2-12.7,9.1-23.7,19-30.8c10.4-7.5,23.4-10.3,35.4-8.4c6.2,1,12.1,3.1,17.4,6.4l-11.1,18
			c-15.1-9.2-30.4-0.7-36.1,8.6c-9.3,15.1-0.7,30.1,8.5,35.8l-11.2,18C180.6,84.2,176.1,80,172.5,75.1z M169.1,12.7
			c0,7-5.7,12.7-12.7,12.7s-12.7-5.7-12.7-12.7c0-7,5.7-12.7,12.7-12.7S169.1,5.7,169.1,12.7z M163.6,26.5c-5.4,2.9-11.1,2-14.8,0
			c10.5,22.8,0.4,41.9-3,47.4v13.2h20.9V74C162.8,67.8,153.3,48.9,163.6,26.5z M149.5,39.9C145.4,14.4,124.9,4,113.6,1.3
			C99.4-2.1,86.5,1.6,77.6,7l11.1,18c19.5-11.8,44.8,5.3,39.3,28.3c-1.6,6.7-5.8,12.4-11.7,16.1l11.2,18
			C138,81,153.5,64.7,149.5,39.9z M73.8,6.9L23.6,87h25.8l24.5-39.7L98.3,87h25.8L73.8,6.9z M46.9,0.2C28.5-0.2,14,9.9,6.5,22.3
			C2.4,29,0.2,36.9,0,45.1V87h20.7l2.1-3.4V45.5c0.3-15.8,17.9-29.3,35.5-18.6L70.1,7C63.1,2.7,55.2,0.4,46.9,0.2z"/>
	</g>
</svg>
