<svg width="1780" height="892" viewBox="0 0 1780 892" fill="none" xmlns="http://www.w3.org/2000/svg">
<path d="M65.1855 551.752C109.598 442.922 173.596 345.48 256.302 262.066C339.007 178.652 435.536 113.543 543.957 68.3527C652.377 23.1624 766.68 0.346607 883.994 6.11981e-05C1001.5 -0.0429379 1116.27 22.5733 1225.08 67.3373C1333.89 112.101 1431.45 177.241 1515.16 260.584C1598.69 343.624 1664.35 441.063 1709.96 550.052C1755.57 659.042 1779.15 774.226 1780 892H1381.33C1380.34 760.467 1328.59 636.812 1235.21 543.92C1141.83 451.029 1018.22 399.896 886.975 400.04C755.733 400.184 632.682 451.48 540.467 544.546C448.972 636.748 398.772 761.495 398.706 892H0.00537705C-0.396424 775.627 21.7238 658.736 65.1855 551.752Z" fill="white"/>
<path d="M1393 892C1391.99 757.264 1339.01 630.598 1243.41 535.444C1049.14 342.087 725.588 340.738 532.133 536.085C438.461 630.532 387.067 758.316 387 892C795.186 892 1393 892 1393 892Z" fill="black"/>
</svg>
